<svg width="209" height="208" viewBox="0 0 209 208" fill="none" xmlns="http://www.w3.org/2000/svg">
<g clip-path="url(#clip0_53_762)" filter="url(#filter0_d_53_762)">
<path fill-rule="evenodd" clip-rule="evenodd" d="M4.5 0H204.5V200H4.5V0Z" fill="white"/>
<path fill-rule="evenodd" clip-rule="evenodd" d="M97.5067 97.3179L92.8376 109.967C91.1702 114.521 90.7033 115.257 89.3015 115.523L89.1013 115.59V116.526H94.9065V115.59L94.7052 115.523C93.5048 115.323 93.0389 114.853 93.0389 113.782C93.0389 113.18 93.3055 111.909 93.7724 110.57L94.9076 107.423H100.044L101.378 111.975L102.512 115.523H100.642V116.527H108.714V115.523H107.246L101.376 97.183L100.043 92.9673V92.767H99.1751L99.1077 92.9009L98.9085 93.3699L97.5067 97.3179ZM101.376 108.831L98.9074 100.733L98.1728 98.1874L98.841 96.3799L98.9064 96.715L101.375 104.813L104.643 115.523H103.443L101.376 108.831V108.831ZM95.2386 106.421L97.5067 100.13L97.6395 99.7271L98.9074 103.877L99.7084 106.421H95.2386V106.421ZM179.026 97.3179L174.357 109.967C172.69 114.521 172.223 115.257 170.821 115.523L170.621 115.59V116.526H176.427V115.59L176.225 115.523C175.025 115.323 174.557 114.853 174.557 113.782C174.557 113.18 174.825 111.909 175.293 110.57L176.428 107.423H181.563L182.897 111.975L184.032 115.523H182.163V116.527H190.234V115.523H188.767L182.897 97.183L181.563 92.9662V92.766H180.696L180.629 92.8998L180.429 93.3688L179.026 97.3179V97.3179ZM182.895 108.831L180.427 100.733L179.694 98.1874L180.363 96.3799L180.427 96.715L182.895 104.813L186.164 115.523H184.964L182.895 108.831V108.831ZM176.759 106.421L179.027 100.13L179.161 99.7271L180.428 103.877L181.228 106.421H176.759V106.421Z" fill="black"/>
<path d="M193.69 151.11H15.3085V71.5952H55.6673C55.6673 71.5952 68.0093 37.1246 105.234 37.1246C142.523 37.1246 157.599 71.5952 157.599 71.5952H193.689V151.11H193.69ZM15.3085 144.364V137.867H193.689V144.424L15.3085 144.364ZM15.3085 83.7857V77.2261H59.5437C59.5437 77.2261 67.4812 43.8938 104.705 43.8938C141.996 43.8938 153.805 77.2261 153.805 77.2261H193.69V83.7857H148.667C148.667 83.7857 136.392 50.4534 104.704 50.4534C71.7508 50.4534 64.6797 83.7857 64.6797 83.7857H15.3085V83.7857Z" stroke="black" stroke-width="13.1773" stroke-miterlimit="2.613"/>
<path fill-rule="evenodd" clip-rule="evenodd" d="M74.1591 127.839H76.4282V129.513H72.2924V121.948H74.1601V127.839H74.1591V127.839ZM150.542 125.564H146.671C146.406 125.564 146.138 125.832 146.138 126.099C146.138 126.433 146.406 126.703 146.671 126.703H150.542C150.621 126.703 150.699 126.687 150.772 126.657C150.845 126.626 150.911 126.582 150.967 126.525C151.022 126.469 151.066 126.403 151.096 126.33C151.126 126.257 151.142 126.178 151.141 126.099C151.141 125.831 150.874 125.564 150.542 125.564ZM61.0181 126.702H64.8862C64.9654 126.702 65.0438 126.687 65.117 126.656C65.1901 126.626 65.2565 126.581 65.3125 126.525C65.3684 126.469 65.4127 126.402 65.4428 126.329C65.4729 126.256 65.4883 126.177 65.488 126.098C65.488 125.831 65.2203 125.563 64.8862 125.563H61.0181C60.7504 125.563 60.4837 125.831 60.4837 126.098C60.4837 126.433 60.7504 126.702 61.0181 126.702ZM131.395 121.948H133.264L136.734 126.568V121.948H138.6V129.513H136.734L133.264 124.895V129.513H131.395V121.948V121.948ZM122.723 123.623C123.858 123.623 124.792 124.561 124.792 125.631C124.792 126.902 123.858 127.84 122.723 127.84C121.655 127.84 120.721 126.902 120.721 125.631C120.722 124.561 121.655 123.623 122.723 123.623ZM122.723 121.68C120.656 121.68 118.787 123.287 118.787 125.563C118.787 128.04 120.455 129.78 122.723 129.78C125.058 129.78 126.725 128.039 126.725 125.563C126.726 123.287 124.857 121.68 122.723 121.68ZM109.316 123.623H109.716C110.917 123.623 111.785 124.358 111.785 125.698C111.785 127.171 110.851 127.839 109.716 127.839H109.316V123.623ZM107.448 129.513H110.05C112.05 129.513 113.718 127.839 113.718 125.697C113.718 123.622 112.117 121.948 110.05 121.948H107.448V129.513ZM93.8389 121.948H95.7055L99.1067 126.568V121.948H100.976V129.513H99.1067L95.7055 124.895V129.513H93.8389V121.948V121.948ZM85.1668 123.623C86.3019 123.623 87.1672 124.561 87.1672 125.631C87.1672 126.902 86.3019 127.84 85.1668 127.84C84.0327 127.84 83.1642 126.902 83.1642 125.631C83.1642 124.561 84.0327 123.623 85.1668 123.623ZM85.1668 121.68C83.0989 121.68 81.1648 123.287 81.1648 125.563C81.1648 128.04 82.8322 129.78 85.1668 129.78C87.5013 129.78 89.1687 128.039 89.1687 125.563C89.1687 123.287 87.2347 121.68 85.1668 121.68ZM80.4281 74.3209C80.2953 74.2545 80.2289 74.186 80.0951 74.1196C80.1615 73.9868 80.2953 73.9194 80.4281 73.8519C80.562 73.7855 80.8286 73.7855 81.0299 73.7855C81.8963 73.7191 82.6309 73.4514 83.3645 73.1163C82.8965 72.1783 81.5632 72.915 80.6958 72.5798C80.6294 72.446 80.4956 72.3796 80.4281 72.3122C79.2951 71.5091 78.0936 70.8398 77.0923 69.8354C77.0923 69.768 77.1587 69.7006 77.2261 69.7006C78.16 69.768 78.9599 69.9693 79.7599 70.3034C79.9664 70.4289 80.2559 70.5524 80.4271 70.6375C81.1617 71.039 81.8953 71.5744 82.6299 71.7757C82.8955 71.3742 82.0291 70.9052 82.6299 70.7724C83.6965 71.3742 84.898 71.508 85.9647 72.0434C86.4316 72.2447 86.831 72.5798 87.2326 73.0478C87.8997 73.7834 88.2338 74.7878 89.1666 75.3232C88.7651 74.0501 88.4995 72.6452 87.9661 71.4406H88.2338C89.0338 71.977 89.9676 72.5788 90.7012 73.3819C91.302 74.0511 91.7678 74.7868 91.9027 75.5899L92.1694 77.3299C92.903 78.2004 93.8368 78.8697 94.7706 79.4725L94.9034 79.3376C94.6219 78.5011 94.3104 77.675 93.9696 76.8609C94.6378 76.9284 95.1047 77.3973 95.637 77.9327C95.8383 78.0655 95.9701 78.2668 96.1039 78.4007C97.1041 79.4715 97.4382 80.8099 97.9726 82.082C98.5733 82.8177 99.5061 83.1528 100.374 83.4205L100.44 83.3541C99.8392 82.2833 98.9728 81.3464 98.839 80.0743C98.9064 79.8076 99.2395 79.9404 99.3733 80.0079C100.024 80.715 100.692 81.4069 101.375 82.0831C102.214 82.857 103.106 83.5726 104.043 84.2246C104.377 84.3585 104.711 84.3585 104.977 84.2246C105.378 83.7556 104.377 83.5543 104.31 83.019C104.51 82.8187 104.711 83.019 104.977 83.1528C105.645 83.4869 106.444 84.2236 107.178 83.4869C107.58 83.2866 108.045 82.6838 108.447 83.0854C108.381 83.6197 107.114 83.8874 107.78 84.3574C109.314 84.6251 110.114 82.8851 111.249 82.0146L111.316 81.9471L113.584 79.7392H113.916C113.782 81.1451 112.917 82.3497 112.049 83.4879C112.449 83.7556 112.783 83.3541 113.115 83.2877C114.65 83.02 114.916 81.3464 115.251 80.1417C115.651 79.2722 116.251 78.4017 116.919 77.665C117.432 77.0829 118.014 76.5661 118.654 76.1263C118.785 76.0599 119.053 75.9925 119.253 76.0599C119.587 76.5278 119.053 76.8619 118.919 77.3309C118.654 77.8663 118.252 78.5366 118.32 79.1384C119.12 78.4692 120.186 77.6661 120.52 76.7291C121.056 75.3896 120.854 73.7845 121.989 72.7127L122.321 72.3786L124.322 70.7049C124.522 70.7049 124.724 70.7724 124.724 71.0401L124.322 73.4504V73.5168C124.991 72.6462 125.791 72.1109 126.659 71.7093C127.66 71.1739 128.859 70.7734 129.861 70.1706C129.927 70.237 130.059 70.1031 130.128 70.237C129.928 70.7049 129.593 71.1065 129.593 71.7093L129.793 71.7757C130.593 71.3078 131.461 70.9052 132.328 70.5036C132.928 70.3034 133.529 70.0357 134.195 69.8344L134.596 69.8998C134.53 70.5026 133.796 70.9716 133.327 71.4395C132.995 71.7072 132.662 71.8421 132.328 71.976C131.461 72.1762 130.459 72.0424 129.726 72.5788C129.926 73.0478 130.526 72.9129 130.993 73.0478C131.394 73.1816 132.06 73.0478 132.328 73.3155C132.394 73.3819 132.46 73.4493 132.46 73.5832C132.395 73.5832 132.395 73.6506 132.328 73.6506C130.661 74.5201 129.06 75.5909 126.99 75.3242H126.658C125.724 75.123 124.789 74.5876 124.055 75.3907C123.453 75.7258 122.856 76.0609 122.32 76.4625C122.12 76.6627 121.988 76.863 121.787 77.0643L122.053 77.1981C122.119 77.1307 122.253 77.1307 122.32 77.1307C123.388 77.0643 124.589 77.0643 125.656 77.1981C125.79 77.2645 125.656 77.3984 125.522 77.5322C124.387 78.0002 123.454 78.9371 122.32 79.6074C121.587 80.0089 120.786 80.343 119.786 80.2102C119.252 80.2102 118.586 79.8751 118.118 80.2766L116.919 81.3484L116.051 82.1515C116.051 82.4192 116.383 82.4192 116.585 82.4192C116.651 82.4192 116.785 82.3528 116.919 82.3528C118.186 82.3528 119.32 82.5531 120.52 82.2864L120.587 82.4192C119.653 83.49 118.386 84.3605 116.919 84.4944C116.517 84.5618 116.051 84.4944 115.583 84.428C114.65 84.428 113.782 83.8916 112.716 84.0939C112.25 84.2277 111.782 84.428 111.315 84.5618C110.314 84.9634 109.312 85.1647 108.113 84.8295C107.112 84.8295 106.178 84.3605 105.177 84.8295C103.842 84.9623 102.575 84.9623 101.374 84.6282C101.107 84.5618 100.84 84.428 100.573 84.3605C99.5061 83.7577 98.3056 84.5608 97.1716 84.5608H96.1039C94.9034 84.3605 93.9032 83.6228 92.8355 82.9546L93.0358 82.8208C94.037 82.8208 95.1047 82.6205 96.1039 82.6205C96.3706 82.6205 96.6372 82.6869 96.9039 82.6869C96.9713 82.6869 97.1041 82.6869 97.1041 82.5531L96.1039 81.5497C95.3039 80.7466 94.3701 80.0774 93.1032 80.479C92.2852 80.4873 91.4721 80.3513 90.7012 80.0774C89.6335 79.6095 88.6997 78.8728 87.8323 78.0022C88.0315 77.802 88.2982 77.7345 88.5659 77.7345C89.3658 77.6681 90.034 77.802 90.7012 77.8684C90.9004 77.8684 91.1692 77.8684 91.4358 77.802C91.5012 77.6681 91.302 77.4669 91.1017 77.333L90.7012 77.0663L88.2338 75.3263C87.4328 75.2589 86.7657 75.6604 85.9647 75.7943H85.8308C83.765 76.1284 82.0301 75.2578 80.4281 74.3209V74.3209ZM132.329 70.7734C131.861 70.9737 131.395 71.2414 131.06 71.6429C131.126 71.7093 131.26 71.7093 131.328 71.7757C131.662 71.7757 131.995 71.7093 132.329 71.5755C132.862 71.3752 133.328 70.9737 133.596 70.5047C133.532 70.237 133.262 70.5047 133.063 70.5047C132.862 70.5732 132.595 70.706 132.329 70.7734V70.7734ZM126.659 72.0445C125.991 72.446 125.457 72.9824 125.323 73.6517C125.791 73.5842 126.257 73.3165 126.659 72.915C126.991 72.5809 127.392 72.2457 127.858 71.9106L127.924 71.7104H127.726C127.326 71.7768 126.992 71.9106 126.659 72.0445V72.0445ZM126.659 73.5178C126.525 73.5178 126.391 73.5842 126.257 73.6517C126.123 73.7855 126.257 73.9194 126.323 73.9194C126.457 73.9194 126.524 73.853 126.658 73.853C127.458 73.6527 128.392 73.6527 129.126 73.3176C128.327 73.0488 127.392 73.1163 126.659 73.5178ZM126.659 74.1871C126.391 74.2545 126.123 74.3219 126.057 74.5886C126.257 74.7225 126.458 74.7889 126.659 74.8563C127.192 75.0565 127.858 75.0566 128.46 74.9227C129.259 74.5876 130.193 74.3863 130.794 73.7845C129.525 73.5832 128.126 73.9183 126.924 74.0511C126.86 74.1196 126.726 74.1196 126.659 74.1871ZM122.323 73.0488C121.857 73.6517 121.589 74.3873 121.655 75.124C121.923 75.0566 122.055 74.7889 122.121 74.5886L122.321 74.1871C122.656 73.6517 123.055 73.1837 123.055 72.5809C122.788 72.7147 122.523 72.8475 122.323 73.0488V73.0488ZM122.323 75.0566C122.323 75.1904 122.256 75.3253 122.256 75.3917L122.323 75.3253C122.788 74.9901 123.123 74.3873 123.456 73.9194C123.656 73.5178 123.924 73.0499 123.723 72.6473C123.056 73.3165 122.657 74.1871 122.323 75.0566ZM122.323 77.6007C121.523 77.6671 120.655 78.1371 120.054 78.8053C120.788 78.6725 121.655 78.5376 122.323 78.2035C122.657 78.0697 122.922 77.9358 123.123 77.6671C122.857 77.6007 122.589 77.6007 122.323 77.6007V77.6007ZM122.323 78.4702C121.523 78.7379 120.788 79.0056 120.054 79.3397C119.988 79.3397 119.988 79.541 120.054 79.6084C120.858 79.6802 121.661 79.4668 122.323 79.0056C122.724 78.8043 123.056 78.5366 123.324 78.2025C122.989 78.2699 122.657 78.4038 122.323 78.4702V78.4702ZM116.92 78.2699C116.41 78.8429 116.004 79.4997 115.718 80.2113C115.718 80.6128 115.453 81.0807 115.718 81.282C116.186 80.9479 116.586 80.479 116.92 80.0774C117.587 79.2079 118.053 78.2035 118.253 77.2002H118.119C117.718 77.5333 117.318 77.8674 116.92 78.2699V78.2699ZM116.92 82.8208C116.72 82.8208 116.518 82.8208 116.318 82.8872C115.651 83.021 114.851 83.1549 114.318 83.5564C115.051 83.8905 116.052 84.1593 116.92 84.0254C117.587 83.959 118.253 83.7577 118.719 83.2898C118.853 83.1559 118.853 83.0221 118.719 82.8882C118.186 82.8208 117.52 82.7533 116.92 82.8208V82.8208ZM111.316 82.6205C110.914 83.0221 110.516 83.4236 110.181 83.8916L110.114 84.1603C110.582 84.0939 110.914 83.7588 111.316 83.49C111.316 83.4236 111.38 83.4236 111.38 83.4236C111.848 82.8882 112.448 82.3528 112.448 81.6836C112.049 82.0177 111.649 82.2864 111.316 82.6205V82.6205ZM101.375 82.6869C100.908 82.219 100.375 81.8174 99.9077 81.4149C99.9741 81.9502 100.375 82.3518 100.641 82.7533C100.909 83.021 101.108 83.2898 101.376 83.5564C101.843 83.959 102.31 84.2931 102.91 84.1593C102.444 83.6239 101.909 83.1559 101.375 82.6869V82.6869ZM96.1049 79.2743C95.8954 78.9963 95.6485 78.7484 95.3714 78.5376C95.305 79.1405 95.638 79.6084 95.8393 80.0764C95.9711 80.1438 96.0385 80.2766 96.1049 80.4115C96.3062 80.7466 96.5054 81.1482 96.9049 81.2146C96.9059 80.4779 96.5729 79.8097 96.1049 79.2743ZM96.1049 84.1603C96.9724 84.2941 97.8398 84.2267 98.5069 83.7587L98.4405 83.6239C97.7734 83.3572 96.9734 83.0895 96.106 83.0895C95.5737 83.0221 95.0393 83.0895 94.506 83.2234C94.506 83.6239 94.9729 83.6239 95.2396 83.8262C95.5052 83.959 95.7719 84.0928 96.1049 84.1603V84.1603ZM90.7022 74.1196C90.5684 73.9194 90.3681 73.7855 90.1689 73.6517V73.7855L90.7022 74.7889L91.1028 75.5919H91.2356C91.1702 75.0565 91.0353 74.5212 90.7022 74.1196V74.1196ZM90.7022 75.9945C90.4356 75.1914 90.1015 74.3219 89.4343 73.6517L89.5018 74.2545C89.7674 74.9237 90.1015 75.6594 90.7022 76.0609V75.9945V75.9945ZM90.7022 79.6759C91.1702 79.9436 91.6361 80.0774 92.2368 80.0774C92.4371 80.011 92.904 80.0774 92.9704 79.7423C92.2368 79.4756 91.4369 79.2743 90.7022 79.073C90.3681 79.0066 90.0351 78.9392 89.7674 78.8053L89.702 78.9392C89.9687 79.2743 90.3017 79.4746 90.7022 79.6759V79.6759ZM90.7022 78.7379C91.5686 79.072 92.5024 79.3397 93.4363 79.4071C92.8365 78.6051 91.6361 78.6051 90.7022 78.3374C90.5684 78.271 90.4356 78.271 90.3017 78.2035L90.1025 78.4712C90.3017 78.5376 90.502 78.6715 90.7022 78.7379V78.7379ZM85.9657 72.5134C85.5652 72.2457 85.0319 72.0445 84.5639 72.0445V72.1783C85.0319 72.5809 85.4988 73.0488 85.9657 73.4514C86.4326 73.7855 86.8321 74.0532 87.299 74.2545L87.4328 74.1196C87.2336 73.4514 86.6993 72.8475 85.9657 72.5134V72.5134ZM85.9657 73.9194C85.2985 73.5842 84.4311 73.6517 83.6975 73.7855C84.3637 74.1196 85.1657 74.2545 85.9657 74.4548H86.0321C86.2324 74.3873 86.499 74.5212 86.4316 74.2545C86.2987 74.1196 86.1659 73.9868 85.9657 73.9194ZM85.9657 74.7225C84.9644 74.3219 83.8314 74.2545 82.8312 74.0522C82.5635 74.2545 82.163 74.1196 81.8973 74.3873C82.8976 75.3253 84.2983 75.5919 85.6337 75.4591C85.7001 75.3917 85.8329 75.3917 85.9667 75.3917C86.2334 75.3253 86.5011 75.1914 86.6339 74.9902C86.4326 74.8563 86.2323 74.7889 85.9657 74.7225V74.7225ZM80.4281 71.8442C80.7622 72.1119 81.1627 72.2457 81.5632 72.1119C81.216 71.7637 80.8359 71.4499 80.4281 71.175C80.0276 70.9747 79.6945 70.7745 79.2951 70.6396L79.2276 70.8409C79.6292 71.1075 80.0276 71.5765 80.4281 71.8442V71.8442Z" fill="black"/>
<path fill-rule="evenodd" clip-rule="evenodd" d="M93.3035 67.6949C93.8378 68.2977 94.3701 68.8995 94.9709 69.3675L95.638 69.8365C95.9711 70.9062 96.3062 72.0444 96.6382 73.1827C96.6382 73.3165 96.7057 73.5178 96.7721 73.7181H96.6382C96.1713 73.7181 95.7719 73.3165 95.3714 73.1163C94.4375 72.446 93.8368 71.5765 93.3035 70.6385C92.5699 69.3665 91.9027 68.0954 90.3681 67.2249C90.1689 67.0246 89.7674 66.9572 89.8338 66.6221C90.2343 66.5556 90.3681 66.0867 90.3007 65.7526C91.6361 65.82 92.5024 66.7569 93.3035 67.6949V67.6949ZM93.3035 66.7569C92.6363 66.0877 91.9027 65.5523 91.0343 65.3521C90.501 65.2182 89.7663 64.8831 89.3669 65.3521C90.1015 65.9538 88.3656 66.1551 88.8336 66.8244C90.3681 67.56 91.8363 69.0324 92.5699 70.6396C92.7691 71.0411 93.0368 71.4426 93.3035 71.8452C94.1698 72.9835 95.3714 73.853 96.6382 74.3883C96.8385 74.5222 97.1052 74.6571 97.3064 74.7235L97.9072 75.3263C98.1739 75.6604 98.508 75.9956 98.84 76.3307L100.242 77.5353C100.641 77.803 101.042 78.0707 101.443 78.272C101.51 78.3384 101.643 78.4059 101.71 78.4723C101.842 78.8064 101.642 79.0741 101.443 79.2754C101.109 79.4756 100.709 79.7433 100.709 80.2123C100.709 80.5474 101.108 80.6813 101.443 80.8151H110.448C110.448 80.8151 110.984 80.8151 111.45 80.6813C111.784 80.6138 112.052 80.4136 112.052 80.0784C112.052 79.7433 111.717 79.4766 111.45 79.2089C111.184 79.0087 110.984 78.74 111.252 78.3395C111.318 78.273 111.383 78.2731 111.45 78.2056C111.802 77.9216 112.182 77.6747 112.585 77.4689C113.051 77.0684 113.586 76.7333 114.052 76.3317C114.118 76.2653 114.252 76.1304 114.386 76.064C114.586 75.9976 114.786 75.9292 114.986 75.9292C115.253 75.8638 115.586 75.7963 115.853 75.7289C115.987 75.6615 116.187 75.6615 116.319 75.5951C116.721 75.5287 117.119 75.3284 117.521 75.1271C117.853 74.9933 118.12 74.792 118.454 74.5917C120.789 73.053 122.324 70.5088 122.456 67.7644V66.8939C122.456 66.8275 122.456 66.6936 122.39 66.5598C122.256 66.2257 121.991 65.8895 121.59 65.957C120.522 66.1583 119.521 66.4934 118.455 66.6262C117.922 66.6936 117.388 66.76 116.854 66.6936C116.587 66.8275 116.453 67.0277 116.319 67.2954C116.187 67.5631 116.121 67.8319 115.853 67.9657L115.787 68.0321C115.519 68.0321 115.253 67.9657 114.987 67.9657C114.653 67.8319 114.32 67.7655 114.053 67.5642C113.52 67.3639 113.052 66.9613 112.586 66.6272C112.184 66.2931 111.786 66.0244 111.451 65.6903C111.319 65.6229 111.253 65.5575 111.117 65.4901C110.787 65.2224 110.449 65.0875 110.051 64.8872C109.585 64.7544 109.05 64.6206 108.584 64.4857C107.915 64.3518 107.317 64.2844 106.783 64.218V63.8828C107.182 63.6815 107.45 63.2136 107.45 62.7446C107.45 62.1418 106.984 61.6074 106.384 61.4725H106.184C105.448 61.4725 104.916 62.009 104.916 62.7446C104.916 63.2136 105.183 63.6815 105.517 63.8828V64.218C105.116 64.2844 104.716 64.4182 104.315 64.4857C103.782 64.6206 103.315 64.8198 102.781 65.0211C102.313 65.1549 101.846 65.4236 101.446 65.6913C101.016 65.9116 100.613 66.1811 100.245 66.4944L99.5103 67.2301C99.3111 67.4314 99.0444 67.5652 98.8431 67.6991C98.51 67.8329 98.1759 67.8993 97.9103 67.9668C97.4434 68.1006 97.0439 68.1006 96.6424 68.168C96.4432 68.168 96.2419 68.2345 96.0427 68.2345C95.5768 68.4357 95.443 69.1714 94.9086 68.5696C94.4375 67.9616 93.9053 67.2923 93.3035 66.7569V66.7569ZM118.453 73.9868C117.784 74.3873 117.118 74.7889 116.317 74.9901C116.185 75.0566 115.985 75.124 115.851 75.124H115.251C115.316 74.7224 115.517 74.5212 115.851 74.3219C115.985 74.2555 116.185 74.1871 116.317 74.1871C116.785 74.0532 117.318 73.9868 117.652 73.6517C117.92 73.5178 118.186 73.3165 118.452 73.1163C119.987 71.9106 120.987 70.1706 121.055 68.1629C120.921 67.8952 120.721 67.6939 120.387 67.6264L118.452 67.8941L117.519 68.028C117.318 68.1618 117.251 68.6308 116.919 68.6308C116.517 68.2967 116.919 67.8277 116.983 67.4262L117.185 67.1585H118.452C119.386 67.091 120.252 66.9572 121.055 66.6221C121.454 66.5556 121.52 66.9572 121.654 67.1585C121.788 69.769 120.721 72.1109 118.653 73.8519C118.587 73.8519 118.521 73.9194 118.453 73.9868ZM118.453 72.3796C118.058 72.707 117.634 72.998 117.187 73.2491C116.919 73.3155 116.651 73.5168 116.317 73.4504L116.251 73.1827C116.251 73.1163 116.317 73.0488 116.317 72.9824C116.719 71.9106 117.117 70.8409 117.318 69.6362L117.985 68.6983L118.453 68.5644L119.988 68.2293C120.122 68.2293 120.32 68.2967 120.39 68.498C120.254 69.9703 119.588 71.3763 118.453 72.3796V72.3796ZM116.318 69.9029C116.252 70.6396 116.052 71.3762 115.852 72.1119C115.584 72.7811 115.317 73.4514 114.985 74.0522C114.719 74.5212 114.385 74.9227 114.051 75.3253C113.851 75.4591 113.719 75.6594 113.518 75.7932C113.718 75.4591 113.917 75.0565 114.051 74.7224C114.586 73.2501 114.851 71.8452 114.985 70.7744C115.119 69.7701 115.119 69.1008 115.119 69.1008H116.384C116.384 69.3675 116.384 69.6362 116.318 69.9029V69.9029ZM114.05 72.915C113.718 74.1196 113.25 75.1904 112.583 76.0609C112.251 76.5289 111.849 76.863 111.448 77.1992C111.182 77.3994 110.914 77.5333 110.648 77.6671C110.648 77.6671 110.982 76.9979 111.448 75.926C111.916 74.655 112.381 72.8475 112.583 70.6385C112.649 70.1031 112.649 69.6352 112.649 69.0998H114.518C114.518 70.3719 114.384 71.7104 114.05 72.915V72.915ZM112.583 68.3642H99.2395L100.24 67.6275L101.441 66.758L101.64 66.5577H111.647L112.581 67.4283L113.582 68.3652H112.583V68.3642V68.3642ZM111.448 73.9194C111.048 75.0565 110.582 76.1948 110.047 76.9989C109.581 77.6681 109.113 78.2035 108.58 78.4038C108.312 78.5376 108.114 78.5376 107.911 78.5376C108.178 78.0686 108.378 77.5333 108.58 76.9989C109.581 73.7191 109.779 69.1008 109.779 69.1008H112.181C112.181 70.5057 111.916 72.2457 111.448 73.9194V73.9194ZM110.048 66.0877H102.043C102.243 65.8864 102.509 65.7526 102.777 65.6187C103.243 65.3521 103.777 65.1508 104.311 65.0159C104.978 64.882 105.712 64.7492 106.38 64.7492C107.114 64.7492 107.847 64.882 108.581 65.0823C109.114 65.2161 109.582 65.4174 110.048 65.6177C110.316 65.7515 110.516 65.8854 110.784 66.0867H110.048V66.0877V66.0877ZM110.048 80.3441H101.91C101.775 80.3441 101.642 80.2112 101.642 80.1438C101.642 80.01 101.775 79.8761 101.91 79.8761H111.049C111.183 79.8761 111.249 80.01 111.249 80.1438C111.249 80.2102 111.183 80.3441 111.049 80.3441H110.048ZM110.048 79.541H108.313C108.313 79.541 108.38 79.4746 108.581 79.4071C108.913 79.2069 109.648 78.8053 110.048 78.7379C110.114 78.7379 110.182 78.6715 110.182 78.6715C110.583 78.6715 110.784 79.541 110.784 79.541H110.048ZM108.581 74.4548C108.313 75.6594 107.981 76.7976 107.58 77.802C107.381 78.271 107.114 78.8053 106.38 78.8728C105.711 78.8728 105.444 78.2699 105.312 77.802C104.846 76.7986 104.511 75.6594 104.311 74.4548C103.977 72.7811 103.778 70.9747 103.644 69.0998H109.181C109.047 70.9747 108.913 72.7811 108.581 74.4548V74.4548ZM106.379 63.4107C106.313 63.4107 106.245 63.4771 106.179 63.4771C105.984 63.4755 105.798 63.3975 105.66 63.2599C105.523 63.1223 105.445 62.9361 105.443 62.7415C105.443 62.34 105.777 62.0059 106.179 62.0059C106.245 62.0059 106.313 62.0723 106.379 62.0723C106.645 62.2061 106.845 62.4748 106.845 62.7425C106.846 63.0092 106.645 63.2769 106.379 63.4107V63.4107ZM104.31 79.541H102.043C102.043 79.541 102.243 78.6715 102.643 78.6715C102.643 78.6715 102.71 78.7379 102.777 78.7379C103.177 78.8043 103.911 79.2069 104.311 79.4071C104.384 79.4418 104.451 79.4869 104.511 79.541H104.31V79.541ZM104.31 78.4038C103.777 78.2035 103.242 77.6671 102.776 76.9989C102.242 76.1958 101.774 75.0565 101.441 73.9194C100.907 72.2468 100.64 70.5057 100.64 69.0998H103.11C103.11 69.0998 103.242 73.7181 104.31 76.9979C104.51 77.5333 104.711 78.0686 104.977 78.5366C104.711 78.5376 104.51 78.5376 104.31 78.4038V78.4038ZM101.442 77.1992C100.975 76.864 100.574 76.5289 100.241 76.0609C99.64 75.1904 99.1066 74.1196 98.8389 72.915C98.4943 71.6722 98.3154 70.3894 98.3067 69.0998H100.174C100.174 69.6362 100.241 70.1031 100.241 70.6385C100.408 72.446 100.812 74.2237 101.442 75.926C101.842 76.9979 102.176 77.6671 102.176 77.6671C101.909 77.5333 101.642 77.3994 101.442 77.1992V77.1992ZM98.84 75.3253C98.4405 74.9237 98.1728 74.5222 97.9072 74.0522C97.24 72.9824 96.8395 71.7104 96.6393 70.5057C96.5082 70.0489 96.4411 69.5761 96.4401 69.1008H97.7744C97.7744 69.1008 97.7744 69.7701 97.9072 70.7744C97.9736 71.8452 98.2413 73.2501 98.84 74.7224C98.9738 75.0565 99.1066 75.4591 99.3079 75.7932L98.84 75.3253V75.3253ZM29.7973 97.3179L25.1271 109.967C23.4608 114.521 22.9938 115.257 21.5921 115.523L21.3918 115.59V116.526H27.1971V115.59L26.9958 115.523C25.7953 115.323 25.3284 114.853 25.3284 113.782C25.3284 113.18 25.5961 111.909 26.062 110.57L27.1971 107.423H32.3341L33.6674 111.975L34.8026 115.523H32.9318V116.527H41.0042V115.523H39.537L33.6664 97.184L32.3331 92.9673V92.767H31.4657L31.3993 92.9009L31.199 93.3699L29.7973 97.3179ZM33.6664 108.831L31.198 100.733L30.4644 98.1873L31.1326 96.3799L31.198 96.715L33.6664 104.813L36.9358 115.523H35.7353L33.6664 108.831V108.831ZM27.5291 106.421L29.7983 100.13L29.9311 99.7271L31.199 103.877L31.999 106.421H27.5291V106.421ZM46.6082 93.9717H47.2764V115.524H45.941V93.9717H46.6082ZM62.618 93.0347H53.479V93.9717H55.6144V103.877H49.944V93.9717H52.0783V93.0347H42.6726V93.9717H44.8079V115.524H42.6726V116.528H52.0793V115.524H49.945V104.881H55.6154V115.524H53.4801V116.528H62.8857V115.524H60.7514V93.9717H62.8857V93.0347H62.618V93.0347ZM57.4146 93.9717H58.0828V115.524H56.7474V93.9717H57.4146ZM71.4904 93.4352L71.3576 93.1675L71.2912 93.0347H65.0875V93.9717H65.2867C66.4872 94.0381 67.0215 94.6409 67.8215 96.7825L68.2884 97.8532V109.633C68.2884 112.646 68.1556 113.583 67.7541 114.319C67.422 114.989 66.8877 115.324 65.82 115.524L65.6198 115.591V116.527H71.8224V115.591L71.6886 115.524H71.4883C69.6871 115.19 69.2202 114.385 69.2202 109.633V100.398L71.4883 106.22L74.49 113.983L74.5564 114.117H75.2226L75.29 113.983L80.2922 100.061V115.523H78.2907V116.527H86.9638V115.523H84.9613V97.3179C84.9613 94.4396 85.2954 94.1719 86.6961 93.9706H86.8964V93.0337H81.7604L81.694 93.1665L76.6918 107.089L71.4904 93.4352V93.4352ZM81.8984 115.524H81.2966V97.3179L81.8984 95.5778L82.4306 93.9717H82.497V115.524H81.8984ZM71.4904 103.409C70.0222 99.6607 68.6889 96.2471 68.6889 96.2471C68.221 95.1099 67.8889 94.4396 67.4874 93.9717H69.0894L71.4904 100.13L75.4934 110.571L74.8916 112.242C74.3593 110.772 72.8258 106.956 71.4904 103.409ZM113.986 94.0381H114.585V115.524H113.45V94.0381H113.986V94.0381ZM125.325 94.976C125.191 94.8422 125.058 94.7083 124.924 94.6409C124.524 94.3068 124.19 94.0391 123.791 93.8388C122.921 93.3699 121.922 93.1686 120.589 93.0358H110.581V94.0391H112.45V115.525H110.581V116.529H118.786C119.318 116.529 119.805 116.529 120.254 116.497C120.485 116.478 120.722 116.45 120.953 116.422C122.098 116.276 122.943 116.016 123.79 115.593C123.988 115.459 124.256 115.325 124.457 115.191C124.655 115.055 124.791 114.991 124.923 114.855C127.391 112.848 128.992 108.899 128.992 104.615C128.993 100.733 127.66 97.184 125.325 94.976ZM124.924 97.3179C125.858 99.1917 126.525 102.072 126.525 104.881C126.525 107.894 125.925 110.504 124.924 112.377C124.602 112.95 124.222 113.489 123.791 113.985C123.657 114.118 123.457 114.252 123.323 114.386C123.457 114.186 123.657 113.918 123.791 113.584C124.324 112.512 124.656 111.107 124.924 109.367C125.058 108.028 125.191 106.423 125.191 104.615C125.191 102.944 125.058 101.403 124.924 100.132C124.656 98.3907 124.324 96.9858 123.791 95.915L123.59 95.5125L123.791 95.7138C124.123 96.1153 124.458 96.5832 124.725 97.0522C124.793 97.1166 124.857 97.2504 124.924 97.3179ZM123.792 110.504C124.124 108.897 124.258 106.956 124.258 104.681C124.258 102.405 124.124 100.466 123.792 98.9251C123.524 97.5191 123.058 96.4484 122.523 95.6442C121.989 94.9086 121.455 94.4396 120.59 94.2393C120.054 94.1055 119.388 94.0391 118.455 94.0391H116.92V115.525H118.321C119.254 115.525 119.988 115.459 120.591 115.258C121.724 114.99 122.457 114.32 122.99 113.116C123.324 112.444 123.59 111.508 123.792 110.504V110.504ZM144.671 93.0347H137.333V93.235L137.467 99.5933V99.7935H138.535V98.3886C138.535 95.3101 139.802 93.9717 142.936 93.9717V115.524H140.268V116.528H150.742V115.524H148.073V93.9717H148.14C149.607 93.9717 150.742 94.3058 151.408 94.976C152.142 95.6453 152.541 96.7835 152.541 98.3897V99.7946H153.61V99.5943L153.543 93.236V93.0358H144.671V93.0347ZM144.671 115.524H144.004V93.9717H145.405V115.524H144.671ZM159.079 93.0347H155.478V93.9717H157.478V115.524H155.478V116.528H169.42V116.26L169.485 111.106V110.839H168.486V111.106C168.419 113.048 168.285 113.717 167.752 114.319C166.952 115.19 165.551 115.524 162.949 115.524H162.213V104.881H162.681C164.148 104.881 165.082 104.947 165.484 105.418C165.816 105.752 165.95 106.354 165.95 107.491V108.898H166.951V100.196H165.95V101.803C165.95 102.473 165.816 102.943 165.55 103.277C165.082 103.678 164.215 103.878 162.748 103.878H162.212V93.9727H162.614C165.015 93.9727 166.549 94.3742 167.483 95.1109C168.217 95.7138 168.485 96.382 168.485 98.7923V99.7956H169.484V99.5953L169.419 93.237V93.0368H159.079V93.0347ZM159.079 115.524H158.412V94.0381H159.748V115.524H159.079Z" fill="black"/>
</g>
<defs>
<filter id="filter0_d_53_762" x="0.5" y="0" width="208" height="208" filterUnits="userSpaceOnUse" color-interpolation-filters="sRGB">
<feFlood flood-opacity="0" result="BackgroundImageFix"/>
<feColorMatrix in="SourceAlpha" type="matrix" values="0 0 0 0 0 0 0 0 0 0 0 0 0 0 0 0 0 0 127 0" result="hardAlpha"/>
<feOffset dy="4"/>
<feGaussianBlur stdDeviation="2"/>
<feComposite in2="hardAlpha" operator="out"/>
<feColorMatrix type="matrix" values="0 0 0 0 0 0 0 0 0 0 0 0 0 0 0 0 0 0 0.25 0"/>
<feBlend mode="normal" in2="BackgroundImageFix" result="effect1_dropShadow_53_762"/>
<feBlend mode="normal" in="SourceGraphic" in2="effect1_dropShadow_53_762" result="shape"/>
</filter>
<clipPath id="clip0_53_762">
<rect width="200" height="200" fill="white" transform="translate(4.5)"/>
</clipPath>
</defs>
</svg>
