<svg width="209" height="208" viewBox="0 0 209 208" fill="none" xmlns="http://www.w3.org/2000/svg">
<g clip-path="url(#clip0_52_457)" filter="url(#filter0_d_52_457)">
<path fill-rule="evenodd" clip-rule="evenodd" d="M4.5 0H204.5V200H4.5V0Z" fill="white"/>
<path fill-rule="evenodd" clip-rule="evenodd" d="M71.2092 64.0551H7.44052V138.227H201.558V64.0551H138.041C130.624 58.9429 118.153 55.8904 104.625 55.8904C91.0965 55.8904 78.6279 58.944 71.2092 64.0551Z" fill="black"/>
<path fill-rule="evenodd" clip-rule="evenodd" d="M71.3327 64.4992H7.88562V137.784H201.116V64.4992H137.919C130.584 59.3829 118.203 56.3345 104.627 56.3345C91.0509 56.3345 78.6694 59.3829 71.3327 64.4992V64.4992Z" fill="white"/>
<path fill-rule="evenodd" clip-rule="evenodd" d="M137.466 65.9777C130.728 61.0824 118.541 57.813 104.626 57.813C90.7095 57.813 78.5221 61.0824 71.7851 65.9777H9.3642V136.304H199.636V65.9777H137.466Z" fill="black"/>
<path fill-rule="evenodd" clip-rule="evenodd" d="M61.2453 119.47C61.2453 120.011 60.8147 120.435 60.2856 120.435C60.1593 120.435 60.0343 120.41 59.9178 120.362C59.8013 120.313 59.6956 120.242 59.6069 120.152C59.5182 120.062 59.4482 119.956 59.401 119.839C59.3538 119.722 59.3304 119.596 59.332 119.47C59.332 118.933 59.7502 118.509 60.2856 118.509C60.8147 118.509 61.2453 118.933 61.2453 119.47ZM65.6426 118.996C65.6426 119.288 65.653 119.32 65.9456 119.32H66.7798C67.3546 119.32 67.4625 119.245 67.5818 118.712L67.6358 118.452C67.7115 118.355 67.9823 118.367 68.0477 118.465C68.0252 118.851 68.0145 119.237 68.0155 119.624C68.0155 120.025 68.0259 120.426 68.0477 120.751C67.9834 120.848 67.7115 120.86 67.6358 120.763L67.5818 120.502C67.4625 119.981 67.3536 119.896 66.7798 119.896H65.9456C65.653 119.896 65.6426 119.928 65.6426 120.219V121.682C65.6426 122.692 65.7069 122.767 66.1946 122.843L66.5961 122.898C66.6719 122.963 66.6719 123.213 66.5961 123.277C66.0219 123.257 65.4473 123.246 64.8727 123.245C64.3747 123.245 63.832 123.255 63.1814 123.277C63.0943 123.213 63.0943 122.963 63.1814 122.898L63.5394 122.843C64.0271 122.767 64.0924 122.692 64.0924 121.682V117.649C64.0924 116.642 64.0281 116.567 63.5394 116.467L63.3226 116.435C63.225 116.371 63.225 116.099 63.3443 116.057C63.8102 116.078 64.3529 116.089 64.8727 116.089H67.1492C67.8423 116.089 68.4607 116.078 68.6121 116.057C68.6121 116.241 68.6121 117.022 68.6339 117.749C68.5904 117.866 68.3517 117.879 68.222 117.791C68.1027 117.347 68.0166 117.086 67.9076 116.947C67.7229 116.718 67.3982 116.588 66.8451 116.588H65.9995C65.6416 116.588 65.6415 116.61 65.6415 117.032V118.996H65.6426V118.996ZM73.9681 121.663C73.9681 122.679 74.0325 122.757 74.5315 122.844L74.8345 122.899C74.9217 122.964 74.9113 123.214 74.8241 123.278C74.2824 123.257 73.7404 123.247 73.1983 123.246C72.6784 123.246 72.1368 123.256 71.5506 123.278C71.4634 123.214 71.4634 122.964 71.5506 122.899L71.8536 122.844C72.3526 122.757 72.417 122.68 72.417 121.663V117.672C72.417 116.653 72.3526 116.577 71.8536 116.49L71.5506 116.435C71.4634 116.371 71.4634 116.121 71.5506 116.057C72.1358 116.078 72.6774 116.089 73.1983 116.089C73.7077 116.089 74.2504 116.078 74.8356 116.057C74.9227 116.121 74.9227 116.371 74.8356 116.435L74.5326 116.49C74.0345 116.577 73.9692 116.652 73.9692 117.672V121.663H73.9681ZM84.6552 121.401C84.6552 122.107 84.6552 122.789 84.677 123.148C84.6013 123.278 84.2973 123.397 84.0368 123.397C84.0254 123.397 83.6685 122.844 83.158 122.216L80.6533 119.115C80.0359 118.333 79.6665 117.889 79.4715 117.727C79.4175 117.835 79.4175 118.019 79.4175 118.42V120.523C79.4175 121.401 79.4611 122.216 79.5804 122.507C79.6779 122.734 79.927 122.799 80.2092 122.854L80.5122 122.898C80.5993 122.983 80.5765 123.213 80.5122 123.277C80.0282 123.257 79.5439 123.246 79.0596 123.245C78.658 123.245 78.2575 123.255 77.8456 123.277C77.7813 123.213 77.7584 122.983 77.8456 122.898L78.0303 122.866C78.3229 122.8 78.5283 122.734 78.6258 122.507C78.7348 122.216 78.7773 121.401 78.7773 120.523V117.77C78.7773 117.174 78.7773 117 78.7016 116.847C78.6258 116.663 78.464 116.556 78.0832 116.479L77.7802 116.436C77.7045 116.349 77.7159 116.09 77.8238 116.058C78.3332 116.079 78.8749 116.09 79.32 116.09C79.6883 116.09 80.0027 116.079 80.231 116.058C80.3389 116.546 81.0434 117.369 82.0198 118.53L82.9308 119.604C83.4184 120.165 83.7224 120.546 83.9715 120.795C84.015 120.686 84.015 120.502 84.015 120.307V118.811C84.015 117.931 83.9715 117.119 83.8521 116.828C83.7546 116.598 83.516 116.534 83.2234 116.479L82.9308 116.436C82.8446 116.349 82.8664 116.122 82.9308 116.058C83.516 116.079 83.9393 116.09 84.3834 116.09C84.7839 116.09 85.1751 116.079 85.5974 116.058C85.6617 116.122 85.6835 116.349 85.5974 116.436L85.4023 116.468C85.1201 116.533 84.9146 116.598 84.8171 116.828C84.6978 117.119 84.6542 117.931 84.6542 118.811V121.401H84.6552V121.401ZM90.8662 118.909C90.8662 119.213 90.8766 119.235 91.1692 119.235H91.9173C92.4817 119.235 92.6 119.158 92.7193 118.637L92.7733 118.367C92.849 118.28 93.1198 118.28 93.1748 118.378C93.153 118.724 93.1416 119.115 93.1416 119.526C93.1416 119.937 93.153 120.328 93.1748 120.675C93.1208 120.772 92.85 120.783 92.7733 120.685L92.7193 120.415C92.6 119.895 92.4817 119.807 91.9173 119.807H91.1692C90.8766 119.807 90.8662 119.818 90.8662 120.144V121.434C90.8662 121.931 90.9098 122.279 91.0395 122.464C91.1806 122.659 91.386 122.745 92.1777 122.745C93.1208 122.745 93.4902 122.713 94.0858 121.486C94.1719 121.367 94.4438 121.412 94.4863 121.541C94.4427 122.105 94.1833 122.982 94.0318 123.276C93.1972 123.252 92.3621 123.242 91.5271 123.244H90.1181C89.5972 123.244 89.067 123.254 88.2536 123.276C88.1674 123.212 88.1674 122.95 88.2536 122.897L88.763 122.821C89.2507 122.756 89.316 122.678 89.316 121.681V117.639C89.316 116.652 89.2517 116.577 88.763 116.49L88.4922 116.435C88.3947 116.371 88.4061 116.121 88.514 116.057C89.0234 116.078 89.5547 116.089 90.0755 116.089H92.3728C93.0659 116.089 93.6853 116.078 93.8254 116.057C93.8368 116.231 93.9125 117.011 93.9665 117.736C93.9229 117.856 93.6739 117.879 93.566 117.779C93.4466 117.4 93.2952 117.075 93.1541 116.924C92.9486 116.718 92.6228 116.588 92.0916 116.588H91.2252C90.8672 116.588 90.8672 116.61 90.8672 117.011V118.909H90.8662V118.909ZM99.3318 123.417C98.3347 123.417 97.7163 123.136 97.4891 123.006C97.2836 122.768 97.1425 121.987 97.1425 121.252C97.2183 121.11 97.4683 121.1 97.5544 121.218C97.7713 121.923 98.4976 122.92 99.419 122.92C100.221 122.92 100.589 122.369 100.589 121.826C100.589 120.948 99.7655 120.427 99.115 120.101C98.3347 119.712 97.4891 119.061 97.4777 117.988C97.4777 116.763 98.4208 115.917 99.9927 115.917C100.351 115.917 100.795 115.961 101.227 116.091C101.369 116.133 101.466 116.155 101.596 116.178C101.683 116.417 101.792 117.001 101.792 117.728C101.737 117.858 101.466 117.868 101.369 117.76C101.184 117.207 100.718 116.417 99.9378 116.417C99.2218 116.417 98.8317 116.88 98.8317 117.424C98.8317 117.922 99.2758 118.379 99.8184 118.66L100.533 119.039C101.206 119.398 102.063 120.025 102.063 121.218C102.064 122.55 100.968 123.417 99.3318 123.417V123.417ZM107.527 116.902C107.527 116.643 107.527 116.588 107.267 116.588H106.595C105.802 116.588 105.576 117.022 105.251 117.814C105.12 117.879 104.914 117.857 104.85 117.715C105.077 116.967 105.131 116.296 105.207 115.873C105.251 115.841 105.304 115.818 105.358 115.818C105.412 115.818 105.467 115.828 105.51 115.863C105.565 116.047 105.597 116.09 106.422 116.09H110.455C111.17 116.09 111.332 116.079 111.429 115.851C111.472 115.828 111.52 115.817 111.569 115.819C111.635 115.819 111.711 115.864 111.733 115.896C111.624 116.264 111.548 117.142 111.569 117.76C111.516 117.858 111.222 117.88 111.17 117.792C110.985 117.099 110.833 116.589 110.021 116.589H109.368C109.109 116.589 109.077 116.621 109.077 116.903V121.683C109.077 122.693 109.141 122.768 109.63 122.844L110.064 122.899C110.138 122.964 110.138 123.214 110.064 123.278C109.485 123.258 108.907 123.248 108.329 123.246C107.808 123.246 107.244 123.256 106.487 123.278C106.4 123.214 106.4 122.964 106.487 122.899L106.974 122.844C107.462 122.768 107.527 122.693 107.527 121.683V116.902V116.902ZM122.106 116.902C122.106 116.643 122.106 116.588 121.844 116.588H121.172C120.381 116.588 120.153 117.022 119.828 117.814C119.698 117.879 119.492 117.857 119.427 117.715C119.654 116.967 119.708 116.296 119.786 115.873C119.829 115.839 119.881 115.82 119.936 115.818C119.991 115.818 120.045 115.828 120.088 115.863C120.143 116.047 120.175 116.09 121 116.09H125.033C125.748 116.09 125.91 116.079 126.007 115.851C126.052 115.829 126.084 115.819 126.149 115.819C126.214 115.819 126.289 115.864 126.311 115.896C126.202 116.264 126.126 117.142 126.149 117.76C126.094 117.858 125.803 117.88 125.748 117.792C125.563 117.099 125.411 116.589 124.599 116.589H123.948C123.689 116.589 123.655 116.621 123.655 116.903V121.683C123.655 122.693 123.721 122.768 124.208 122.844L124.642 122.899C124.718 122.964 124.718 123.214 124.642 123.278C124.063 123.258 123.485 123.248 122.907 123.246C122.386 123.246 121.822 123.256 121.065 123.278C120.978 123.214 120.978 122.964 121.065 122.899L121.554 122.844C122.04 122.768 122.107 122.693 122.107 121.683V116.902H122.106V116.902ZM131.502 118.909C131.502 119.213 131.512 119.235 131.806 119.235H132.554C133.118 119.235 133.237 119.158 133.356 118.637L133.409 118.367C133.486 118.28 133.756 118.28 133.811 118.378C133.768 119.143 133.768 119.91 133.811 120.675C133.756 120.772 133.487 120.783 133.409 120.685L133.356 120.415C133.237 119.895 133.118 119.807 132.554 119.807H131.806C131.512 119.807 131.502 119.818 131.502 120.144V121.434C131.502 121.931 131.545 122.279 131.674 122.464C131.816 122.659 132.021 122.745 132.814 122.745C133.756 122.745 134.125 122.713 134.723 121.486C134.808 121.367 135.08 121.412 135.122 121.541C135.08 122.105 134.82 122.982 134.668 123.276C133.833 123.252 132.998 123.242 132.163 123.244H130.755C130.234 123.244 129.703 123.254 128.89 123.276C128.803 123.212 128.803 122.95 128.89 122.897L129.399 122.821C129.888 122.756 129.952 122.678 129.952 121.681V117.639C129.952 116.652 129.888 116.577 129.399 116.49L129.127 116.435C129.029 116.371 129.04 116.121 129.149 116.057C129.657 116.078 130.191 116.089 130.709 116.089H133.008C133.703 116.089 134.321 116.078 134.46 116.057C134.471 116.231 134.547 117.011 134.602 117.736C134.558 117.856 134.309 117.879 134.201 117.779C134.081 117.4 133.929 117.075 133.79 116.924C133.583 116.718 133.259 116.588 132.726 116.588H131.859C131.502 116.588 131.502 116.61 131.502 117.011V118.909V118.909ZM139.825 120.795C139.566 120.795 139.534 120.806 139.469 121.012L139.067 122.269C139.003 122.485 138.99 122.573 138.99 122.66C138.99 122.724 139.077 122.789 139.381 122.844L139.707 122.899C139.772 122.974 139.792 123.223 139.685 123.278C139.307 123.256 138.873 123.256 138.416 123.246C138.048 123.246 137.798 123.278 137.3 123.278C137.181 123.214 137.192 122.985 137.268 122.899L137.561 122.867C137.821 122.833 138.048 122.748 138.222 122.325C138.417 121.891 138.601 121.37 138.893 120.59L139.869 117.945C140.128 117.262 140.324 116.881 140.292 116.569C140.811 116.45 141.213 115.917 141.235 115.917C141.377 115.917 141.441 115.971 141.484 116.133C141.571 116.45 141.7 116.848 141.972 117.619L143.446 121.869C143.675 122.522 143.771 122.758 144.173 122.834L144.584 122.9C144.648 122.953 144.671 123.215 144.571 123.279C144.053 123.257 143.467 123.247 142.904 123.247C142.361 123.247 141.939 123.257 141.441 123.279C141.32 123.215 141.299 122.986 141.419 122.9L141.766 122.845C142.015 122.801 142.057 122.726 142.057 122.661C142.057 122.584 141.983 122.325 141.853 121.923L141.559 120.991C141.504 120.817 141.419 120.796 141.04 120.796H139.825V120.795V120.795ZM140.987 120.219C141.236 120.219 141.301 120.187 141.203 119.905L140.922 119.027C140.771 118.561 140.629 118.115 140.531 117.888C140.423 118.127 140.25 118.581 140.087 119.079L139.815 119.894C139.707 120.185 139.773 120.217 140.042 120.217H140.987V120.219V120.219ZM148.847 119.47C148.853 119.6 148.833 119.729 148.788 119.85C148.742 119.971 148.673 120.082 148.583 120.176C148.494 120.27 148.386 120.344 148.267 120.395C148.148 120.446 148.02 120.472 147.891 120.472C147.761 120.472 147.633 120.446 147.514 120.395C147.395 120.344 147.287 120.27 147.198 120.176C147.108 120.082 147.039 119.971 146.994 119.85C146.948 119.729 146.928 119.6 146.934 119.47C146.934 118.933 147.351 118.509 147.889 118.509C148.418 118.509 148.847 118.933 148.847 119.47ZM67.6586 82.5583L67.4687 82.6444C63.1254 84.5909 60.4931 88.1996 59.6433 93.3678C59.0446 97.0118 59.9535 101.387 61.9052 104.257C63.8299 107.27 66.9095 109.122 70.5628 109.458C74.3282 109.755 77.7429 108.592 80.1864 106.185C80.2061 106.164 80.8037 105.411 80.8037 105.411L80.9635 105.211L80.922 105.013L80.9396 97.6198L78.7472 99.7998C78.7452 99.7998 78.2399 100.238 78.2399 100.238C77.3112 101.046 76.4355 101.813 75.3637 102.226C73.66 102.793 72.0455 101.804 71.1137 100.686C69.4017 98.3959 68.7076 95.4647 69.1309 92.2389C69.3675 90.4802 69.9216 89.3596 70.8761 88.7163C71.5049 88.2307 72.7791 87.9527 73.8893 88.2785C74.7494 88.5306 75.3346 89.0764 75.6262 89.8992L75.9032 90.5923L76.1429 91.2065L76.2166 91.8135L76.8858 91.8498L80.895 91.8042L80.7736 86.1286L80.1687 84.1593L79.9301 83.9403C78.5439 82.6631 73.0613 79.9654 67.6586 82.5583V82.5583Z" fill="white"/>
<path fill-rule="evenodd" clip-rule="evenodd" d="M79.4279 84.483V89.8556C79.4082 90.2582 79.4123 91.0758 79.4123 91.0758L76.8734 91.1111C76.8609 90.8911 76.5019 90.1575 76.3224 89.6512C75.344 86.8975 71.8328 87.0427 70.4621 88.1031C69.0853 89.0328 68.6038 90.6047 68.3974 92.1435C67.9647 95.4378 68.6495 98.6263 70.5452 101.16C71.7851 102.648 73.7222 103.552 75.6293 102.917C77.0404 102.372 78.0884 101.332 79.2629 100.329C79.2629 100.329 79.9975 99.6058 80.1947 99.4014L80.1812 105.009C80.0315 105.242 79.8587 105.46 79.6655 105.658C77.277 108.011 74.0148 108.99 70.6282 108.72C67.2965 108.416 64.3913 106.776 62.5153 103.842C60.7587 101.261 59.7823 97.0741 60.3717 93.4882C61.6645 85.6244 67.0672 83.6613 67.9761 83.2234C73.0021 80.8131 78.2056 83.3572 79.4279 84.483V84.483Z" fill="black"/>
<path fill-rule="evenodd" clip-rule="evenodd" d="M59.9317 82.5364L48.9956 82.5063L49.4937 83.5751C50.0145 84.7102 50.3621 85.7727 50.3569 86.2167L50.3528 103.199L50.3289 105.221C50.2885 105.776 49.8516 106.846 49.4906 107.579L48.9676 108.643L50.1474 108.66L60.9569 108.676L60.6082 107.72L60.2192 106.686C59.995 106.143 59.7844 105.63 59.7356 105.113L59.7263 86.141C59.7408 85.5288 60.2866 84.2993 60.492 83.8365L61.0606 82.498L59.9317 82.5364V82.5364Z" fill="white"/>
<path fill-rule="evenodd" clip-rule="evenodd" d="M59.9297 83.2773C59.8467 83.5086 59.0093 85.1895 58.9875 86.142L58.9969 105.166C59.0851 106.155 59.6298 107.037 59.9006 107.934C59.6921 107.93 50.1484 107.92 50.1484 107.92C50.1691 107.877 50.9992 106.225 51.0687 105.23L51.0936 103.198L51.0978 86.224C51.1081 85.2694 50.1733 83.2824 50.1588 83.2472C50.5987 83.2451 59.9297 83.2773 59.9297 83.2773Z" fill="black"/>
<path fill-rule="evenodd" clip-rule="evenodd" d="M172.131 82.5084L161.27 82.5333L161.827 83.8303C162.184 84.6531 162.626 85.6772 162.626 86.4575L162.65 104.182C162.646 105.52 162.397 106.177 161.736 107.575L161.238 108.634L173.283 108.608L172.765 107.428C172.465 106.747 172.012 105.718 172.007 105.025C172.007 105.025 172.001 103.864 171.997 102.682C172.373 103.324 172.789 104.042 173.268 104.881L173.34 105.006C173.819 105.844 174.127 106.378 174.127 107.145C174.127 107.338 174.106 107.542 174.066 107.771L173.914 108.637L188.351 108.673L186.997 107.08C185.938 105.832 184.733 104.418 183.916 103.064C183.906 103.045 178.526 94.7166 177.402 92.9755L181.884 86.8974C182.456 86.1161 183.805 85.0277 185.59 83.9123L187.767 82.553L185.222 82.5323L173.443 82.5012L174.015 83.5917C174.335 84.1935 174.506 85.0495 174.021 85.6523L174.017 85.6575L174.021 85.6523L172.947 87.0385L171.973 88.2867L171.981 86.1566C172.015 85.5817 172.287 84.8969 172.549 84.2339L173.211 82.4877L172.131 82.5084V82.5084Z" fill="white"/>
<path fill-rule="evenodd" clip-rule="evenodd" d="M172.131 83.2483C171.816 84.1448 171.299 85.1637 171.241 86.1525L171.227 90.4003L171.246 90.418C172.439 88.9571 173.98 86.8809 174.597 86.1131C175.231 85.3276 175.184 84.2122 174.667 83.24C175.263 83.2514 185.222 83.268 185.222 83.268C184.854 83.4973 182.287 85.0879 181.286 86.4586C180.451 87.603 176.477 92.9808 176.477 92.9808L176.562 93.0358L183.285 103.441C184.213 104.983 185.581 106.547 186.748 107.925L174.795 107.895C175.052 106.436 174.578 105.68 173.909 104.512C173.588 103.951 171.878 100.954 171.244 100.011L171.247 100.195L171.267 105.027C171.276 105.927 171.814 107.096 172.151 107.866L162.405 107.888C163.06 106.499 163.386 105.705 163.39 104.181C163.392 103.854 163.366 86.4555 163.366 86.4555C163.366 85.4272 162.792 84.2039 162.392 83.269L172.131 83.2483V83.2483Z" fill="black"/>
<path fill-rule="evenodd" clip-rule="evenodd" d="M79.5524 83.5657C80.0069 84.484 80.4344 85.451 80.4779 86.3039L80.4717 103.947C80.4831 104.091 80.4883 104.232 80.4883 104.368C80.4883 105.616 80.0608 106.508 79.7952 107.064C79.6333 107.402 79.5223 107.636 79.5223 107.897L79.5244 107.972L79.5794 108.652H80.2611C82.8872 108.657 89.7633 108.673 90.0258 108.678L91.1619 108.706L90.7427 107.679L90.4356 106.937C90.171 106.325 89.8971 105.691 89.8546 105.124V105.1L89.8463 102.71C90.4032 103.672 90.9596 104.634 91.5157 105.596C91.7544 105.989 92.0013 106.55 92.0013 107.195C92.0013 107.352 91.9868 107.515 91.9536 107.681L91.9328 107.798L91.7824 108.664L92.656 108.676L106.083 108.702C106.083 108.702 106.02 108.625 106.009 108.609H115.762L115.6 107.784L115.468 107.065C115.402 106.755 115.337 106.457 115.337 106.195C115.337 106.155 115.341 106.114 115.343 106.076C115.369 105.972 116.115 103.112 116.465 101.77C116.674 102.599 116.903 103.531 117.122 104.419L117.505 106.042C117.637 106.467 117.55 106.714 117.388 107.116L116.855 108.666L117.913 108.591L127.434 108.581L126.605 106.963C126.396 106.564 126.309 106.396 126.309 106.193C126.309 106.045 126.356 105.881 126.434 105.598L126.611 104.943L131.541 85.755C131.572 85.6388 131.726 85.4562 131.926 85.2684C132.046 85.6471 132.139 86.0466 132.139 86.4222V86.4792L132.169 104.224C132.175 104.305 132.178 104.386 132.178 104.467C132.178 105.77 131.569 107.008 131.331 107.49L130.808 108.556L131.973 108.603L142.847 108.617L142.339 107.558C141.548 105.904 141.507 105.148 141.507 103.205L141.491 86.5052C141.469 85.6979 141.842 84.7953 142.171 83.9984L142.773 82.5209L141.669 82.5281L123.692 82.5458L123.93 83.5688C124.177 84.5981 124.258 85.3338 124.258 85.8546C124.258 86.225 124.215 86.4886 124.164 86.6733L123.335 90.5932L122.543 86.6982C122.421 86.196 122.322 85.6679 122.322 85.0712C122.322 84.5908 122.386 84.0658 122.555 83.4765L122.823 82.5375L109.946 82.5001L109.961 82.5146L91.3549 82.5364L91.909 83.6124C92.1134 84.0098 92.2161 84.4062 92.2161 84.76C92.2161 85.0878 92.1269 85.3794 91.9494 85.6004L89.8483 88.323V86.6141C89.8483 85.6305 90.1648 84.8866 90.4989 84.1001L91.1598 82.5095L90.0538 82.5188L87.4609 82.5167L79.0409 82.498L79.5524 83.5657V83.5657ZM101.123 85.1781C101.41 85.809 101.71 86.5415 101.852 87.2035L104.342 97.958L106.1 105.519C106.112 105.598 106.119 105.674 106.119 105.75C106.119 105.993 106.064 106.212 105.961 106.378L105.765 106.714C105.55 107.071 105.367 107.411 105.331 107.754L104.91 107.22C103.702 105.909 102.687 104.605 101.907 103.362C101.905 103.355 95.9296 93.9893 95.2842 92.9787C95.7449 92.3509 100.162 86.3143 100.162 86.3132C100.163 86.3163 100.664 85.7218 101.123 85.1781ZM111.32 86.6162C111.203 85.9926 111.075 85.3192 111.075 84.7019C111.075 84.3709 111.128 84.0638 111.221 83.7805C111.819 84.3854 113.179 86.0715 113.179 87.4214C113.179 87.5697 113.163 87.714 113.126 87.853C113.126 87.853 112.665 89.5038 112.214 91.1048L111.373 86.8995L111.32 86.6162V86.6162Z" fill="white"/>
<path fill-rule="evenodd" clip-rule="evenodd" d="M101.299 83.822C101.631 84.5068 102.321 85.8712 102.575 87.0478L105.062 97.792L106.831 105.397C106.902 105.89 106.827 106.384 106.589 106.769C106.404 107.116 106.031 107.63 106.044 107.87C106.421 107.87 114.61 107.874 114.868 107.87C114.797 107.266 114.538 106.595 114.612 105.955L116.022 100.54L116.466 98.9105C116.558 99.0029 117.84 104.245 117.84 104.245L118.225 105.874C118.508 106.763 118.036 107.315 117.913 107.851L126.224 107.843C125.342 106.091 125.416 106.61 125.894 104.756C126.606 102.011 130.824 85.5714 130.824 85.5714C131.015 84.8451 132.273 84.0731 132.273 84.0731C132.562 84.788 132.901 85.6544 132.879 86.4969L132.909 104.222C133.009 105.804 132.237 107.326 131.973 107.864L141.672 107.878C140.795 106.041 140.769 105.127 140.769 103.205L140.752 86.5062C140.72 85.3888 141.301 84.2007 141.672 83.2679L124.623 83.2835C124.665 83.4972 125.239 85.59 124.876 86.8725L123.405 93.844L123.296 94.0453C123.296 94.0266 123.277 94.0266 123.277 94.0079L121.818 86.8434C121.583 85.8723 121.427 84.733 121.844 83.2721L111.732 83.2441C111.732 83.2441 114.392 85.9055 113.843 88.0367C113.25 90.1181 112.092 94.2694 112.092 94.2694L110.647 87.0437C110.432 85.8712 110.085 84.3906 110.617 83.2524L92.5658 83.2731C93.0679 84.2505 93.1115 85.3338 92.5242 86.0621L89.1085 90.4885C89.1085 90.4885 89.1065 87.8375 89.1075 86.611C89.1085 85.2269 89.6408 84.2806 90.0475 83.2565C89.5049 83.2524 80.8141 83.2524 80.2144 83.2368C80.6481 84.1115 81.1648 85.2269 81.2167 86.2717L81.2125 98.1738C81.224 99.9875 81.199 102.073 81.2115 103.942C81.3837 106.189 80.2351 107.571 80.2621 107.912C80.2621 107.912 89.8348 107.93 90.0496 107.937C89.7415 107.113 89.1874 106.13 89.1168 105.178L89.0971 100.287L89.1345 100.178C89.2081 100.178 89.2818 100.251 89.2994 100.289L92.1559 105.224C92.6114 105.976 92.8646 106.892 92.6778 107.826C92.6591 107.918 92.6705 107.879 92.6571 107.935L104.556 107.959C104.491 107.848 104.415 107.772 104.379 107.736C103.23 106.488 102.153 105.148 101.279 103.752L94.5953 93.2744C94.5403 93.1457 94.339 93.0544 94.4313 92.8894L99.5642 85.8754C100.099 85.2383 101.299 83.822 101.299 83.822V83.822Z" fill="black"/>
<path fill-rule="evenodd" clip-rule="evenodd" d="M40.1513 76.9885L26.2934 77.029L26.836 78.1257C27.4119 79.3054 27.7408 80.4675 27.7408 81.3183L27.747 100.943L27.7356 104.419L27.7366 104.496C27.7366 105.525 27.222 106.715 26.8796 107.509L26.3805 108.668L31.4315 108.672L39.3275 108.668L38.8906 107.651L38.6551 107.09C38.3003 106.259 37.9651 105.472 37.9288 104.658L37.9195 98.0867H42.4153C42.4682 98.0846 43.457 98.0141 43.457 98.0141L43.4882 98.012L43.5183 98.0068C44.9761 97.7796 46.2824 97.1383 47.295 96.1516C49.31 94.1875 50.5043 91.3881 50.6558 88.2712C50.6693 88.0014 50.6765 87.7347 50.6765 87.4712C50.6765 83.8749 49.4148 80.8369 47.0025 78.6497C45.0342 76.8536 42.4412 76.9231 40.1513 76.9885V76.9885ZM38.6427 82.7544C39.0577 82.7627 39.1231 82.8311 39.3046 83.0916C39.7456 83.7245 40.0258 84.2889 40.1824 86.7698C40.2436 88.9622 40.1264 90.2654 39.2901 91.6672C39.1365 91.9297 38.4445 91.9442 37.9599 91.9297L37.9361 82.7844L38.6427 82.7544V82.7544Z" fill="white"/>
<path fill-rule="evenodd" clip-rule="evenodd" d="M46.5065 79.1965C49.0807 81.5311 50.0944 84.7393 49.918 88.2349C49.78 91.0727 48.7279 93.7247 46.7794 95.6225C45.8611 96.5158 44.6689 97.0792 43.4051 97.2764L42.4163 97.3469H37.1797C37.1797 97.3469 37.162 102.346 37.1911 104.691C37.2419 105.844 37.7887 106.902 38.2069 107.929C35.6617 107.966 29.4424 107.915 27.5073 107.929C27.8829 107.056 28.5096 105.667 28.4775 104.421L28.4899 100.943L28.4837 81.3319C28.4889 79.7444 27.5727 77.9452 27.4866 77.7647C27.7958 77.7605 40.1596 77.7273 40.1596 77.7273C42.4651 77.663 44.7716 77.6152 46.5065 79.1965V79.1965ZM37.1942 82.0758C37.1942 82.4659 37.2222 92.1372 37.2222 92.6415C37.7711 92.6415 39.4219 92.9019 39.9241 92.0459C40.889 90.4273 40.9814 88.9218 40.9191 86.7242C40.7645 84.2775 40.4916 83.5056 39.9095 82.6693C39.5993 82.2242 39.3223 82.0291 38.6561 82.0146C38.1682 82.0174 37.6806 82.0378 37.1942 82.0758V82.0758Z" fill="black"/>
<path fill-rule="evenodd" clip-rule="evenodd" d="M149.621 82.5178C147.357 83.4693 145.528 84.8856 144.184 86.7273C142.719 88.734 141.958 90.6535 141.55 93.3522C140.995 97.0346 141.913 101.407 143.836 104.231C145.76 107.244 148.839 109.096 152.493 109.432C156.259 109.729 159.673 108.566 162.117 106.159C162.136 106.138 162.733 105.385 162.733 105.385L162.893 105.185L162.853 104.987L162.871 97.5949C162.871 97.5949 160.681 99.7707 160.679 99.7749C160.675 99.7749 160.172 100.213 160.172 100.213C159.244 101.023 158.367 101.788 157.295 102.203C155.59 102.768 153.978 101.779 153.045 100.661C151.333 98.371 150.64 95.4398 151.061 92.215C151.347 90.0963 152.109 88.8616 153.462 88.3324C155.127 87.6829 156.549 88.4185 156.979 88.8751C157.404 89.3306 157.913 90.6908 158.161 91.3445L158.343 91.8322L162.901 91.7793L163.016 85.9968C163.016 85.9605 162.1 84.4591 162.1 84.4591L162.098 84.1354L161.861 83.9154C161.056 83.1736 159.129 82.1754 156.8 81.7365C154.475 81.2966 152.556 81.2841 149.621 82.5178V82.5178Z" fill="white"/>
<path fill-rule="evenodd" clip-rule="evenodd" d="M156.663 82.4618C158.937 82.8913 160.708 83.8594 161.358 84.4581V89.8297C161.338 90.2322 161.342 91.0488 161.342 91.0488L158.85 91.0841C158.456 90.033 158.003 88.8875 157.516 88.3687C156.925 87.7358 155.175 86.8674 153.194 87.6424C151.495 88.3055 150.634 89.8359 150.326 92.1165C149.894 95.4108 150.579 98.5993 152.476 101.133C153.716 102.621 155.653 103.525 157.56 102.89C158.97 102.345 160.018 101.305 161.193 100.302C161.193 100.302 161.927 99.5788 162.125 99.3754L162.111 104.984C161.962 105.213 161.831 105.381 161.596 105.632C159.206 107.987 155.944 108.964 152.558 108.696C149.226 108.39 146.32 106.751 144.446 103.816C142.689 101.235 141.737 97.0554 142.279 93.4622C142.715 90.558 143.583 88.8014 144.78 87.1631C146.241 85.1595 148.101 83.958 149.905 83.1995C152.718 82.0177 154.516 82.0561 156.663 82.4618Z" fill="black"/>
<path fill-rule="evenodd" clip-rule="evenodd" d="M78.3104 84.926L78.3768 85.1325L78.3592 90.0766L77.6287 90.0776C77.6287 90.0776 77.6038 89.8971 77.5623 89.7757C76.6658 87.1983 74.8501 86.2936 72.5197 86.334C72.086 86.3413 66.9748 86.6474 67.2197 94.2632C67.311 97.1021 68.0612 99.723 69.8126 101.853C71.2351 103.523 73.4659 104.611 75.6646 103.979C76.8713 103.661 78.3498 102.486 79.1394 101.896C79.1385 102.838 79.1392 103.781 79.1415 104.723C78.8168 105.27 78.2772 105.562 77.801 105.945C74.516 108.15 69.8095 108.465 66.3564 106.235C65.9404 105.982 60.988 103.108 61.2868 94.7374C61.5006 91.2408 62.8847 88.0595 65.5834 85.7986C67.365 84.3388 70.237 83.2846 72.1793 83.2452C73.9007 83.2088 76.4895 83.5668 78.3104 84.926V84.926ZM58.3401 84.2973C58.3401 84.2973 57.9385 85.3722 57.9261 86.4803L57.9531 105.218C57.9883 105.805 58.1803 106.349 58.2882 106.898C58.2882 106.898 51.9641 106.896 51.768 106.9C52.0741 106.018 52.1156 105.267 52.1499 104.869L52.1592 96.8126L52.1416 86.4803C52.1073 84.925 51.7514 84.2869 51.7514 84.2869L58.3401 84.2973V84.2973ZM181.738 84.318C181.738 84.318 181.31 84.6594 180.751 85.423C179.938 86.5333 175.429 92.6851 175.263 92.849C175.244 93.0316 182.311 103.876 182.311 103.876C182.894 104.904 183.691 105.941 184.421 106.914L176.148 106.878C176.004 106.438 175.876 105.998 175.678 105.596C174.44 103.32 170.873 97.045 170.29 96.2741L170.235 96.3467L170.205 104.527C170.219 105.552 170.394 106.381 170.586 106.862L164.056 106.855C164.158 106.417 164.401 105.601 164.401 104.672C164.401 103.746 164.373 86.4803 164.373 86.4803C164.37 85.8132 164.221 84.843 164.002 84.2931C164.002 84.2931 169.386 84.3097 170.568 84.3108C170.404 84.8897 170.2 85.7084 170.195 86.3309C170.195 86.3309 170.219 92.269 170.21 93.4767C172.048 91.0986 174.773 87.5739 175.461 86.6588C176.088 85.8246 176.299 85.1014 176.303 84.3149L181.738 84.318V84.318ZM133.596 106.858C133.783 106.159 133.93 105.415 133.914 104.645L133.904 86.5115C133.893 85.7436 133.758 84.9826 133.505 84.2578H140.072C139.868 84.953 139.692 85.8059 139.707 86.6121L139.718 104.498C139.718 105.499 139.868 105.846 140.1 106.858H133.596V106.858ZM130.339 84.2236C130.339 84.2236 129.944 84.5847 129.818 85.1107C129.692 85.6378 124.647 105.422 124.647 105.422C124.517 105.842 124.43 106.387 124.519 106.864L119.299 106.831C119.299 106.831 119.427 106.343 119.256 105.622C119.131 105.095 116.547 94.6005 116.547 94.6005C116.526 94.4645 116.531 94.5154 116.464 94.6824L113.828 104.89C113.679 105.53 113.488 106.161 113.522 106.856H107.789C108.235 105.368 107.447 104.062 107.244 102.635C107.244 102.635 103.932 88.3687 103.566 86.7677C103.248 85.3712 103.126 85.1688 102.694 84.291C102.694 84.291 107.289 84.2921 109.281 84.29C109.131 85.7322 109.877 88.0875 110.183 89.9376C110.183 89.9376 111.64 97.1384 111.946 98.5132C112.112 98.5318 112.003 98.3119 112.094 98.2206C112.447 97.0315 114.767 88.4798 114.767 88.4798C115.022 87.4204 115.146 85.9719 114.155 84.3294L120.491 84.2848C120.491 84.2848 120.343 84.7818 120.738 86.8061C120.738 86.8061 123.079 98.6429 123.115 98.6979C123.182 98.5267 123.17 98.3689 123.245 98.2413C123.653 96.7047 125.92 87.0074 125.92 87.0074C126.007 86.3008 126.201 85.5797 125.879 84.2267H130.339V84.2236V84.2236ZM93.982 106.897C93.9291 106.366 93.6739 105.908 93.4747 105.449L90.7801 100.752L88.1954 96.3301C88.1706 96.3069 88.1381 96.2936 88.1041 96.2927L88.0678 96.3654L88.074 105.173C88.1155 105.897 88.2878 106.373 88.432 106.923C88.1705 106.921 81.8786 106.908 81.861 106.927C81.944 106.706 82.0457 106.453 82.0831 106.234C82.4182 104.514 82.1868 102.754 82.2657 100.925L82.2428 86.3268C82.2319 85.6345 82.0904 84.9505 81.8257 84.3108C82.1962 84.3014 88.0398 84.2869 88.4061 84.2879C88.239 85.0194 88.0491 85.8215 88.046 86.6256L88.0419 93.4197C88.0595 93.456 88.1145 93.456 88.1332 93.4197L93.1032 86.9742C93.6137 86.3122 94.3431 85.2508 94.1698 84.3035C95.7449 84.2713 99.5829 84.289 99.5829 84.289C99.3453 84.5722 98.9645 84.924 98.7445 85.2529L93.1333 92.9424C93.2059 93.0897 93.3335 93.236 93.4062 93.401L100.199 104.026C100.8 104.999 101.362 105.933 102.288 106.944L93.982 106.897V106.897ZM46.3187 80.4966C49.2561 83.4724 49.5497 88.7101 47.8709 92.3852C47.2068 93.7195 46.2325 94.9989 44.8744 95.7252C44.0308 96.161 43.0233 96.3602 42.0884 96.3197L36.1058 96.3187L36.1462 104.833C36.1805 105.528 36.4067 106.304 36.5696 106.945L29.1218 106.87C29.3075 106.12 29.515 105.341 29.5368 104.517L29.5441 81.0061C29.4559 80.2548 29.3293 79.4808 29.1125 78.822L41.9297 78.7784C43.5784 78.7286 45.169 79.2287 46.3187 80.4966V80.4966ZM36.1317 80.9926L36.139 93.6812C37.9412 93.6915 39.0608 93.7361 39.4758 93.621C40.3152 93.3886 40.971 92.6073 41.2625 91.7762C42.2047 89.2528 42.1798 85.9014 41.4202 83.2991C41.0571 82.2906 40.3297 81.0247 39.1023 81.0019L36.1317 80.9926V80.9926ZM160.241 84.9001L160.307 85.1066L160.289 90.0507L159.559 90.0527C159.559 90.0527 159.533 89.8722 159.491 89.7498C158.595 87.1724 156.78 86.2676 154.449 86.3091C154.015 86.3174 148.904 86.6225 149.15 94.2383C149.242 97.0772 149.992 99.6981 151.742 101.827C153.165 103.499 155.395 104.587 157.595 103.953C158.801 103.635 160.28 102.46 161.069 101.87C161.067 102.008 161.071 104.697 161.071 104.697C160.747 105.244 160.208 105.537 159.731 105.919C156.037 108.398 150.981 108.171 148.286 106.211C147.69 105.777 142.879 103.192 143.183 94.7115C143.396 91.2148 144.814 88.0336 147.514 85.7727C149.295 84.3128 152.166 83.2586 154.11 83.2192C155.831 83.1829 158.421 83.5409 160.241 84.9001V84.9001ZM97.0917 68.8145C97.8636 69.1683 99.1471 69.9288 99.6203 70.5628L99.75 70.6925C99.7894 70.7267 99.8309 70.761 99.8599 70.8046C99.9606 70.9094 100.132 71.0909 100.162 71.1345C100.354 71.369 100.554 71.5942 100.706 71.8463C101.018 72.2883 101.3 72.8102 101.472 73.3051C101.625 73.7835 101.777 74.2607 101.86 74.7484C101.892 74.9487 101.942 75.2361 101.894 75.4187C101.854 75.5754 101.634 75.5422 101.484 75.4986L101.434 75.4903C101.384 75.482 101.384 75.482 101.363 75.4643L101.214 75.4394L101.123 75.4135C100.913 75.371 100.481 75.1728 100.242 75.0514C100.001 74.931 99.6503 74.7671 99.5196 74.6716C98.8124 74.2506 98.1615 73.7416 97.5824 73.1568C97.1207 72.6712 96.7565 72.1161 96.4349 71.5776C96.2128 71.1781 95.97 70.7091 95.8684 70.2744C95.8684 70.2744 95.8175 70.1094 95.7978 70.0575C95.777 69.9703 95.7563 69.9019 95.7262 69.823C95.6951 69.6923 95.6754 69.5532 95.6536 69.4308C95.6235 69.2658 95.4782 68.4306 95.7781 68.3953C96.051 68.3662 96.9111 68.6941 97.0917 68.8145ZM110.267 69.3872L110.506 69.2471C110.516 69.2378 110.755 69.0977 110.854 69.0448C111.093 68.9224 111.332 68.8166 111.571 68.7118C111.68 68.6682 112.538 68.2988 112.67 68.4461C112.881 68.6983 112.646 69.7255 112.538 70.0658C112.391 70.5374 112.203 70.9953 111.977 71.4344C111.673 72.0434 111.282 72.6048 110.816 73.1007C110.417 73.5217 109.981 73.9051 109.513 74.2462C109.135 74.5182 108.736 74.7584 108.319 74.9642L108.238 74.9995C108.218 75.0171 108.149 75.0431 108.109 75.0607L107.93 75.1489C107.9 75.1572 107.78 75.2101 107.78 75.2101C107.571 75.3585 107.063 75.4913 106.772 75.5359C106.653 75.5546 106.513 75.5722 106.481 75.4239C106.451 75.2765 106.47 75.0669 106.489 74.8937C106.562 74.356 106.7 73.8291 106.9 73.3248C107.076 72.8714 107.295 72.4014 107.581 71.9905C107.81 71.6678 108.059 71.3441 108.316 71.0308C108.852 70.3843 109.551 69.877 110.267 69.3872V69.3872ZM106.059 67.3328C106.059 67.3504 106.11 67.5154 106.13 67.6026C106.151 67.6545 106.151 67.6545 106.16 67.7499L106.17 67.8288C106.211 67.9502 106.241 68.1151 106.243 68.2199C106.294 68.5758 106.306 68.9514 106.318 69.3073C106.298 69.9412 106.187 70.5688 105.988 71.1708C105.929 71.3451 105.822 71.6678 105.811 71.728C105.752 71.8328 105.704 71.9459 105.654 72.0424C105.633 72.0953 105.615 72.1472 105.585 72.1908L105.486 72.3838C105.486 72.4014 105.18 72.916 105.051 73.0986C105.021 73.1599 104.872 73.3425 104.782 73.4566C104.732 73.5355 104.613 73.6745 104.604 73.7357C104.545 73.8924 104.537 74.406 104.509 74.7629C104.493 75.3025 104.467 76.008 104.519 76.3992C104.56 76.6078 104.653 77.0518 104.733 77.3818C104.754 77.4513 104.673 77.4866 104.614 77.5042C104.415 77.5748 103.975 77.5592 103.755 77.525C103.585 77.5001 103.594 77.4046 103.624 77.2905C103.664 77.168 103.723 76.9595 103.723 76.9595C103.771 76.6544 103.83 76.3411 103.828 76.0277C103.826 75.5577 103.833 75.0794 103.81 74.6094L103.786 74.1041C103.785 73.9132 103.785 73.9132 103.775 73.8872L103.754 73.8177C103.754 73.7305 103.522 73.4089 103.391 73.245C103.341 73.1671 103.27 73.0717 103.23 73.0022C103.172 72.9238 103.118 72.8428 103.068 72.7594C102.82 72.3773 102.619 71.9661 102.472 71.535C102.065 70.2484 101.807 68.8134 102.24 67.4895C102.377 67.0713 102.564 66.5391 102.683 66.2786C102.89 65.8169 103.533 64.6911 104.051 64.3757C104.399 64.1568 105.277 65.5886 105.439 65.8491C105.692 66.3077 105.936 66.8285 106.059 67.3328Z" fill="white"/>
</g>
<defs>
<filter id="filter0_d_52_457" x="0.5" y="0" width="208" height="208" filterUnits="userSpaceOnUse" color-interpolation-filters="sRGB">
<feFlood flood-opacity="0" result="BackgroundImageFix"/>
<feColorMatrix in="SourceAlpha" type="matrix" values="0 0 0 0 0 0 0 0 0 0 0 0 0 0 0 0 0 0 127 0" result="hardAlpha"/>
<feOffset dy="4"/>
<feGaussianBlur stdDeviation="2"/>
<feComposite in2="hardAlpha" operator="out"/>
<feColorMatrix type="matrix" values="0 0 0 0 0 0 0 0 0 0 0 0 0 0 0 0 0 0 0.25 0"/>
<feBlend mode="normal" in2="BackgroundImageFix" result="effect1_dropShadow_52_457"/>
<feBlend mode="normal" in="SourceGraphic" in2="effect1_dropShadow_52_457" result="shape"/>
</filter>
<clipPath id="clip0_52_457">
<rect width="200" height="200" fill="white" transform="translate(4.5)"/>
</clipPath>
</defs>
</svg>
