<svg width="208" height="208" viewBox="0 0 208 208" fill="none" xmlns="http://www.w3.org/2000/svg">
<g clip-path="url(#clip0_52_232)" filter="url(#filter0_d_52_232)">
<path fill-rule="evenodd" clip-rule="evenodd" d="M4 0H204V200H4V0Z" fill="white"/>
<path d="M12.8236 112.676H195.176V113.182H12.8236V112.676Z" fill="#376598"/>
<path fill-rule="evenodd" clip-rule="evenodd" d="M134.899 85.1087C134.899 83.3437 133.42 81.501 130.69 80.5101C130.69 80.5101 118.111 75.5972 103.999 75.5972C89.8868 75.5972 77.3082 80.5101 77.3082 80.5101C74.5794 81.502 73.1008 83.3437 73.1008 85.1087V96.9672C73.1008 98.7321 74.5794 100.575 77.3082 101.567C77.3082 101.567 89.8868 106.48 103.999 106.48C118.111 106.48 130.69 101.567 130.69 101.567C133.42 100.575 134.899 98.7332 134.899 96.9672V85.1087Z" fill="#CDB26D"/>
<path d="M133.972 85.1086V85.1076C133.972 84.678 133.848 84.2339 133.606 83.8044C133.52 83.6515 133.423 83.5045 133.317 83.3644C132.715 82.5759 131.724 81.8682 130.376 81.3785L130.362 81.3754C130.325 81.3619 117.939 76.5247 104 76.5247C90.059 76.5247 77.6745 81.3619 77.6392 81.3754L77.6174 81.3826L77.6143 81.3837V81.3826C77.2812 81.504 76.9606 81.6441 76.6545 81.8008C76.3732 81.9436 76.1018 82.1051 75.8421 82.2843C74.6561 83.1081 74.0284 84.1395 74.0284 85.1086V96.9692C74.0284 97.3987 74.1529 97.8418 74.3936 98.2724C74.4777 98.4239 74.5752 98.5702 74.6831 98.7123C75.286 99.5009 76.2758 100.207 77.6236 100.698L77.6382 100.701C77.6745 100.716 90.059 105.553 103.999 105.553C117.939 105.553 130.324 100.716 130.361 100.701L130.382 100.694L130.386 100.693V100.694C130.718 100.573 131.038 100.432 131.344 100.276C131.648 100.122 131.92 99.9605 132.159 99.7945L132.157 99.7924C133.343 98.9686 133.971 97.9383 133.971 96.9671V85.1086H133.972V85.1086ZM135.826 85.1065V96.9661C135.826 98.537 134.922 100.127 133.215 101.311H133.211C132.883 101.539 132.541 101.744 132.186 101.926C131.833 102.106 131.444 102.274 131.021 102.429V102.43C130.984 102.445 118.284 107.405 104 107.405C89.7166 107.405 77.0166 102.445 76.9793 102.43V102.429C75.2891 101.812 74.017 100.885 73.2129 99.8329C73.053 99.6243 72.9077 99.4048 72.7781 99.1761C72.3797 98.4633 72.1743 97.7131 72.1732 96.9681V85.1086C72.1732 83.5387 73.0769 81.9492 74.7838 80.7632C75.1002 80.5443 75.4437 80.3378 75.813 80.149C76.1658 79.9684 76.5549 79.8003 76.9793 79.6457V79.6447C77.0156 79.6302 89.7156 74.6705 104 74.6705C118.284 74.6705 130.984 79.6312 131.021 79.6447V79.6457C132.711 80.2631 133.982 81.1897 134.786 82.2418C134.952 82.4586 135.098 82.6786 135.222 82.8986C135.621 83.6103 135.826 84.3615 135.826 85.1065V85.1065Z" fill="#376598"/>
<path fill-rule="evenodd" clip-rule="evenodd" d="M91.6798 88.0356C91.6798 88.0356 92.156 88.4797 92.1768 89.2475V94.7446C92.1768 94.7446 92.1571 95.5933 91.8396 95.9565H94.2229C94.2229 95.9565 93.9438 95.2893 93.9251 94.7446C93.9251 94.7446 93.9272 89.2516 93.9251 89.2475C93.9085 88.5118 95.2895 87.9038 95.2947 89.2475V95.9523H97.4342C97.4342 95.9523 97.098 95.3454 97.098 94.7373V89.233C97.098 88.4164 97.1385 87.4743 96.296 87.2211C95.4753 86.9741 94.9347 87.2398 94.1503 87.6382C94.1503 87.6766 93.7964 87.1256 93.7964 87.1256L91.6798 88.0356V88.0356ZM98.0236 88.0356C98.0236 88.0356 98.4998 88.4797 98.5206 89.2475V94.7446C98.5206 94.7446 98.4998 95.5933 98.1833 95.9565H100.567C100.567 95.9565 100.289 95.2893 100.269 94.7446C100.269 94.7446 100.271 89.2516 100.269 89.2475C100.252 88.5118 101.633 87.9038 101.64 89.2475V95.9523H103.779C103.779 95.9523 103.444 95.3454 103.444 94.7373V89.233C103.444 88.4164 103.483 87.4743 102.642 87.2211C101.82 86.9741 101.281 87.2398 100.496 87.6382C100.496 87.6766 100.141 87.1256 100.141 87.1256L98.0236 88.0356V88.0356ZM112.304 94.7187V88.3593H113.254V87.3342H112.304V85.4551C112.304 85.4551 112.285 84.9415 112.584 84.6956C112.882 84.4487 113.081 84.7216 112.956 84.9239C112.77 85.2269 112.92 85.6637 113.405 85.8152C113.871 85.9615 114.274 85.4541 114.244 84.9799C114.225 84.6956 114.106 83.8977 112.789 83.8033C111.464 83.7078 110.532 84.9799 110.532 85.7768V87.3145C110.532 87.3145 110.268 87.9235 109.96 88.3427H110.525V94.7394C110.525 94.7394 110.457 95.5913 110.158 95.9513H112.641C112.361 95.3827 112.304 94.7187 112.304 94.7187V94.7187ZM121.139 94.7187V83.9589L118.838 84.7506C118.838 84.7506 119.37 85.4728 119.394 85.9916V94.6979C119.394 94.6979 119.292 95.5923 118.994 95.9523H121.475C121.196 95.3827 121.139 94.7187 121.139 94.7187V94.7187ZM130.583 94.7187V88.3593H131.535V87.3342H130.583V85.0214L128.812 85.7778V87.3155C128.812 87.3155 128.548 87.9246 128.24 88.3438H128.803V94.7404C128.803 94.7404 128.737 95.5923 128.438 95.9523H130.919C130.64 95.3827 130.583 94.7187 130.583 94.7187V94.7187ZM88.399 87.8706C88.399 87.8706 89.2197 87.8322 89.201 89.0286V94.0401C89.2197 95.2354 88.399 95.198 88.399 95.198H88.3242C88.3242 95.198 87.5035 95.2354 87.5222 94.0401V89.0286C87.5035 87.8322 88.3242 87.8706 88.3242 87.8706H88.399ZM88.3481 87.0125C86.4151 87.0675 85.4751 89.0068 85.502 91.6007V91.4648C85.4751 94.0598 86.4141 95.999 88.3481 96.054C90.2801 95.999 91.2471 94.0608 91.2201 91.4648V91.6007C91.2471 89.0068 90.3071 87.0665 88.3751 87.0125H88.3481ZM106.37 90.809C106.37 90.809 107.752 90.8277 107.752 90.809V88.7401C107.752 88.7401 107.752 87.8281 107.08 87.8478C106.409 87.8675 106.389 88.4174 106.37 88.7401V90.809ZM109.505 91.6433C109.552 88.986 109.246 86.9907 107.025 86.9731C104.58 86.9544 104.291 90.4822 104.304 91.6007C104.459 94.0608 105.069 96.0551 107 96.11C108.441 96.0468 108.87 95.307 109.107 94.7228C109.345 94.1366 109.354 93.2723 109.2 92.9568C109.045 92.6414 108.777 92.2316 107.806 92.3654V94.2829C107.695 94.8898 107.695 95.1378 107.136 95.1378C106.576 95.1378 106.388 94.6253 106.37 94.2268C106.352 93.8284 106.37 91.6453 106.37 91.6453H109.505V91.6433V91.6433Z" fill="#376598"/>
<path fill-rule="evenodd" clip-rule="evenodd" d="M115.297 90.8091C115.297 90.8091 116.677 90.8278 116.677 90.8091V88.7402C116.677 88.7402 116.677 87.8281 116.005 87.8478C115.335 87.8676 115.316 88.4175 115.297 88.7402V90.8091ZM118.43 91.6433C118.478 88.9861 118.172 86.9908 115.949 86.9732C113.505 86.9545 113.215 90.4823 113.229 91.6008C113.383 94.0609 113.993 96.0551 115.925 96.1101C117.366 96.0468 117.796 95.307 118.032 94.7229C118.271 94.1366 118.279 93.2723 118.126 92.9569C117.972 92.6415 117.702 92.2316 116.733 92.3655V94.2829C116.62 94.8899 116.62 95.1379 116.061 95.1379C115.502 95.1379 115.315 94.6253 115.297 94.2269C115.276 93.8285 115.297 91.6454 115.297 91.6454H118.43V91.6433V91.6433ZM124.132 93.8368C124.132 93.8368 124.132 94.7478 124.805 94.7291C125.475 94.7094 125.494 94.1595 125.512 93.8368V88.9539C125.512 88.9539 125.512 88.0429 124.842 88.0616C124.172 88.0803 124.151 88.6312 124.132 88.9539V93.8368ZM124.785 86.9732C122.344 86.8321 122.051 90.4823 122.067 91.6008C122.216 93.9654 122.763 95.776 124.523 95.9711C125.323 95.9524 125.661 95.4782 125.661 95.4782L125.886 95.9524H127.691C127.411 95.3828 127.355 94.7187 127.355 94.7187V83.959L125.055 84.7507C125.055 84.7507 125.539 85.4666 125.563 85.9854L125.565 87.1713C125.565 87.1713 125.297 87.0033 124.785 86.9732ZM139.347 120.194H139.133C139.069 120.309 139.039 120.345 138.997 120.401C138.682 120.787 138.133 120.801 138.004 120.815V121.037H138.318C138.561 121.044 138.654 121.087 138.683 121.236C138.698 121.294 138.692 121.314 138.698 121.35V124.4C138.692 124.736 138.655 124.886 138.462 124.95C138.374 124.976 138.282 124.988 138.19 124.985H137.91V125.271C138.246 125.263 138.583 125.25 138.926 125.25C139.296 125.25 139.67 125.264 140.04 125.279V124.993H139.819C139.805 124.993 139.505 125.007 139.404 124.821C139.354 124.742 139.347 124.593 139.347 124.385V120.194V120.194ZM143.159 122.401C143.187 122.38 143.338 122.302 143.445 122.208C143.581 122.087 143.866 121.78 143.866 121.279C143.866 121.08 143.802 120.457 143.187 120.215C143.026 120.153 142.854 120.119 142.681 120.115C141.952 120.115 141.459 120.636 141.45 121.365C141.45 121.85 141.688 122.171 141.801 122.301C141.929 122.451 142.144 122.592 142.172 122.615C142.019 122.687 141.873 122.773 141.736 122.872C141.572 123.007 141.236 123.336 141.236 123.93C141.236 124.529 141.558 125.016 142.129 125.215C142.35 125.294 142.537 125.3 142.629 125.3C143.186 125.3 143.693 124.986 143.914 124.48C144.035 124.194 144.05 123.922 144.05 123.808C144.05 123.365 143.871 123.065 143.772 122.93C143.601 122.716 143.38 122.558 143.159 122.401ZM142.917 122.251C142.602 122.044 142.41 121.915 142.281 121.794C142.002 121.53 141.958 121.28 141.958 121.123C141.958 120.715 142.201 120.373 142.636 120.367C143.159 120.367 143.315 120.931 143.315 121.332C143.315 121.732 143.165 121.996 143.066 122.117C143.022 122.168 142.972 122.213 142.917 122.251V122.251ZM142.409 122.772C142.981 123.122 143.281 123.329 143.428 123.623C143.496 123.753 143.531 123.897 143.53 124.044C143.53 124.18 143.502 124.737 143.007 124.973C142.909 125.02 142.801 125.044 142.692 125.044C142.528 125.044 142.369 124.991 142.237 124.894C141.829 124.578 141.829 123.986 141.829 123.879C141.829 123.421 141.987 123.149 142.109 123.006C142.173 122.937 142.245 122.881 142.409 122.772V122.772ZM147.943 124.101C147.892 124.272 147.835 124.472 147.671 124.572C147.535 124.658 147.413 124.651 147.114 124.658C146.729 124.665 146.335 124.658 145.948 124.68C146.099 124.48 146.242 124.278 146.392 124.079C146.556 123.873 146.715 123.665 146.885 123.465C147.465 122.765 147.765 122.428 147.915 122C147.986 121.803 148.023 121.595 148.022 121.386C148.022 120.643 147.572 120.135 146.806 120.135C146.422 120.135 146.186 120.257 146.05 120.35C145.678 120.607 145.527 121.008 145.47 121.435C145.455 121.545 145.443 121.654 145.434 121.764H145.691C145.699 121.671 145.708 121.335 145.872 121.056C145.944 120.93 146.05 120.826 146.177 120.756C146.304 120.686 146.448 120.651 146.593 120.656C146.75 120.651 146.905 120.698 147.033 120.79C147.16 120.882 147.255 121.013 147.3 121.164C147.343 121.292 147.349 121.443 147.349 121.477C147.349 121.906 147.143 122.378 146.65 123.135C146.478 123.392 146.299 123.65 146.112 123.9C145.863 124.249 145.614 124.593 145.362 124.935V125.279C145.798 125.263 146.242 125.25 146.685 125.25C147.098 125.25 147.512 125.264 147.927 125.279C147.955 125.085 147.984 124.893 148.02 124.706C148.055 124.507 148.097 124.299 148.148 124.099H147.943V124.101V124.101ZM152.091 120.016C152.074 120.051 152.046 120.136 151.939 120.18C151.891 120.194 151.84 120.194 151.818 120.194H150.013L149.855 122.772L150.055 122.787C150.104 122.644 150.126 122.588 150.168 122.523C150.223 122.441 150.298 122.374 150.385 122.328C150.472 122.282 150.57 122.258 150.668 122.258C150.983 122.258 151.217 122.472 151.353 122.738C151.468 122.973 151.511 123.266 151.511 123.523C151.511 124.251 151.262 124.623 150.996 124.816C150.843 124.935 150.653 124.998 150.459 124.995C150.025 124.995 149.745 124.744 149.638 124.659L149.474 124.838C149.625 124.982 150.003 125.332 150.617 125.332C151.033 125.332 151.332 125.145 151.455 125.067C152.169 124.573 152.211 123.724 152.211 123.467C152.211 122.624 151.848 122.188 151.541 121.995C151.364 121.881 151.158 121.819 150.947 121.816C150.534 121.816 150.269 122.081 150.169 122.167L150.263 120.788H152.093L152.249 120.017H152.091V120.016V120.016ZM57.1989 120.08C56.5442 120.102 55.8967 120.124 55.2409 120.124C54.8674 120.124 54.4929 120.102 54.1183 120.088V120.318C54.2469 120.332 54.4057 120.332 54.4918 120.448C54.5852 120.549 54.5852 120.714 54.5925 120.995V124.407C54.5852 124.694 54.5561 124.867 54.4192 124.947C54.3253 124.992 54.2212 125.012 54.1172 125.005V125.25C55.2013 125.222 56.2859 125.219 57.3701 125.242C57.3991 125.025 57.4209 124.802 57.4489 124.588C57.4852 124.328 57.5216 124.076 57.5641 123.817H57.2985C57.2622 124.054 57.2269 124.299 57.0972 124.508C56.9104 124.818 56.6147 124.919 55.96 124.919C55.7369 124.919 55.5418 124.911 55.4557 124.875C55.425 124.863 55.3978 124.843 55.3764 124.818C55.355 124.793 55.3402 124.763 55.3333 124.731C55.3188 124.666 55.3188 124.551 55.3115 124.392V122.716H56.0606C56.2401 122.723 56.3117 122.745 56.3771 122.809C56.485 122.924 56.485 123.111 56.4995 123.421H56.7662C56.7496 123.136 56.7403 122.851 56.7382 122.565C56.7382 122.271 56.7517 121.982 56.7662 121.686H56.5068C56.5068 121.802 56.4995 122.076 56.457 122.191C56.3927 122.386 56.2557 122.406 55.9247 122.414H55.3198V120.787C55.3198 120.679 55.3198 120.635 55.3416 120.578C55.3914 120.441 55.5294 120.413 55.7961 120.413C56.2422 120.413 56.4943 120.435 56.6821 120.558C56.9125 120.715 56.9561 121.055 56.9913 121.307H57.2653L57.1989 120.08V120.08ZM65.7828 120.11C65.5016 120.125 65.2204 120.138 64.9403 120.138C64.6591 120.138 64.3779 120.124 64.105 120.11L64.0977 120.348C64.2918 120.355 64.4785 120.384 64.5377 120.606C64.5512 120.672 64.5657 120.758 64.5657 120.902V124.522C64.5584 124.896 64.4796 124.998 64.0977 125.019V125.25C64.6165 125.242 65.1415 125.228 65.6593 125.228C66.1854 125.228 66.7104 125.242 67.2354 125.25C67.2717 125.019 67.3153 124.782 67.3506 124.544C67.4014 124.277 67.4512 124.011 67.5083 123.751L67.2779 123.744C67.141 124.19 67.0766 124.384 66.9397 124.579C66.7737 124.823 66.5444 124.903 66.2632 124.925C66.0837 124.94 65.9104 124.94 65.7309 124.94C65.4715 124.94 65.3418 124.925 65.3055 124.767C65.291 124.703 65.291 124.652 65.291 124.522V120.809C65.3055 120.427 65.4207 120.376 65.7817 120.348V120.11H65.7828V120.11ZM71.6825 120.08C71.0278 120.102 70.3793 120.124 69.7245 120.124C69.35 120.124 68.9754 120.102 68.6008 120.088V120.318C68.7305 120.332 68.8883 120.332 68.9754 120.448C69.0688 120.549 69.0688 120.714 69.0761 120.995V124.407C69.0698 124.694 69.0408 124.867 68.9038 124.947C68.8096 124.992 68.7052 125.012 68.6008 125.005V125.25C69.6849 125.222 70.7695 125.219 71.8537 125.242C71.8827 125.025 71.9045 124.802 71.9336 124.588C71.9699 124.328 72.0062 124.076 72.0487 123.817H71.7831C71.7468 124.054 71.7105 124.299 71.5818 124.508C71.394 124.818 71.0993 124.919 70.4436 124.919C70.2205 124.919 70.0265 124.911 69.9404 124.875C69.9096 124.863 69.8824 124.843 69.861 124.818C69.8397 124.793 69.8249 124.763 69.8179 124.731C69.8034 124.666 69.8034 124.551 69.7961 124.392V122.716H70.5453C70.7248 122.723 70.7974 122.745 70.8617 122.809C70.9696 122.924 70.9696 123.111 70.9842 123.421H71.2508C71.2363 123.134 71.2218 122.853 71.2218 122.565C71.2218 122.271 71.2363 121.982 71.2508 121.686H70.9914C70.9914 121.802 70.9842 122.076 70.9416 122.191C70.8763 122.386 70.7403 122.406 70.4083 122.414H69.8034V120.787C69.8034 120.679 69.8034 120.635 69.8252 120.578C69.875 120.441 70.012 120.413 70.2786 120.413C70.7258 120.413 70.9769 120.435 71.1647 120.558C71.3951 120.715 71.4386 121.055 71.4739 121.307H71.7478L71.6825 120.08V120.08ZM76.2675 120.232C75.8857 120.138 75.4541 120.037 75.0577 120.037C73.7981 120.037 73.6258 121.01 73.6258 121.455C73.6258 121.958 73.8271 122.276 74.2235 122.563C74.4186 122.707 74.6489 122.837 74.706 122.866C74.8429 122.945 74.9799 123.017 75.1169 123.097C75.4261 123.262 75.7353 123.42 75.8867 123.759C75.9478 123.876 75.9778 124.007 75.9739 124.139C75.9746 124.282 75.9394 124.423 75.8714 124.549C75.8034 124.675 75.7048 124.782 75.5848 124.859C75.4104 124.962 75.2112 125.014 75.0089 125.011C74.791 125.018 74.5765 124.955 74.3968 124.831C73.9869 124.537 73.9724 124.018 73.9651 123.881C73.9579 123.788 73.9579 123.701 73.9506 123.607L73.5906 123.6V124.931C74.0658 125.14 74.4829 125.312 75.0235 125.32C75.4914 125.32 75.7934 125.176 75.9521 125.075C76.528 124.715 76.5715 124.09 76.5715 123.874C76.5715 123.284 76.3339 122.909 75.866 122.585C75.6211 122.413 75.369 122.276 75.1096 122.131C74.8429 121.987 74.5047 121.829 74.3397 121.555C74.2564 121.432 74.2135 121.287 74.2173 121.139C74.2173 120.642 74.5701 120.339 75.0453 120.339C75.1459 120.339 75.3472 120.339 75.5485 120.483C75.9013 120.713 75.9438 121.116 75.9812 121.499H76.2686V120.232H76.2675V120.232ZM81.1514 120.08C80.4957 120.102 79.8482 120.124 79.1935 120.124C78.8189 120.124 78.4444 120.102 78.0709 120.088V120.318C78.2005 120.332 78.3583 120.332 78.4444 120.448C78.5378 120.549 78.5378 120.714 78.545 120.995V124.407C78.5378 124.694 78.5087 124.867 78.3718 124.947C78.2779 124.992 78.1738 125.012 78.0698 125.005V125.25C78.648 125.235 79.2263 125.228 79.8046 125.228C80.3151 125.228 80.8194 125.235 81.3237 125.242C81.3517 125.025 81.3735 124.802 81.4025 124.588C81.4378 124.328 81.4741 124.076 81.5177 123.817H81.251C81.2147 124.054 81.1794 124.299 81.0497 124.508C80.8619 124.818 80.5673 124.919 79.9126 124.919C79.6895 124.919 79.4944 124.911 79.4083 124.875C79.3776 124.863 79.3503 124.843 79.329 124.818C79.3076 124.793 79.2928 124.763 79.2859 124.731C79.2713 124.666 79.2713 124.551 79.2641 124.392V122.716H80.0122C80.1917 122.723 80.2643 122.745 80.3297 122.809C80.4376 122.924 80.4376 123.111 80.4521 123.421H80.7188C80.7042 123.134 80.6897 122.853 80.6897 122.565C80.6897 122.271 80.7042 121.982 80.7188 121.686H80.4594C80.4594 121.802 80.4521 122.076 80.4085 122.191C80.3442 122.386 80.2072 122.406 79.8762 122.414H79.2713V120.787C79.2713 120.679 79.2713 120.635 79.2931 120.578C79.344 120.441 79.4809 120.413 79.7476 120.413C80.1937 120.413 80.4459 120.435 80.6337 120.558C80.864 120.715 80.9066 121.055 80.9429 121.307H81.2158L81.1514 120.08V120.08ZM84.1023 120.102C83.9508 120.102 83.7931 120.11 83.6416 120.117C83.4113 120.117 83.1809 120.11 82.9506 120.102V120.34C83.238 120.354 83.3532 120.411 83.404 120.591C83.4403 120.72 83.4331 120.887 83.4331 120.901V124.27C83.4331 124.651 83.4113 124.896 83.2027 124.976C83.1239 125.004 83.0378 125.004 82.9516 125.011V125.256C83.1554 125.241 83.3596 125.234 83.5638 125.234C83.7941 125.234 84.0235 125.241 84.2548 125.256L84.2621 125.011C84.2258 125.011 84.0172 125.025 83.8948 124.91C83.7724 124.795 83.7651 124.579 83.7578 124.428C83.7506 124.133 83.7506 123.845 83.7506 123.557V120.907L86.3487 125.255H86.6444V121.058C86.6516 120.922 86.6516 120.69 86.7025 120.554C86.7741 120.367 86.9474 120.346 87.1196 120.339L87.1269 120.094C86.7075 120.124 86.2866 120.124 85.8672 120.094V120.339C85.9606 120.346 86.1121 120.353 86.1982 120.439C86.3061 120.534 86.3134 120.671 86.3279 120.943C86.3424 121.266 86.3424 121.584 86.3424 121.907V123.874L84.1023 120.102V120.102ZM91.6569 120.08C91.0022 120.102 90.3548 120.124 89.699 120.124C89.3245 120.124 88.9509 120.102 88.5753 120.088V120.318C88.705 120.332 88.8638 120.332 88.9499 120.448C89.0433 120.549 89.0433 120.714 89.0505 120.995V124.407C89.0433 124.694 89.0142 124.867 88.8773 124.947C88.783 124.992 88.6786 125.012 88.5743 125.005V125.25C89.1525 125.235 89.7308 125.228 90.3091 125.228C90.8206 125.228 91.3239 125.235 91.8281 125.242C91.8562 125.025 91.879 124.802 91.907 124.588C91.9423 124.328 91.9786 124.076 92.0222 123.817H91.7586C91.7223 124.054 91.687 124.299 91.5573 124.508C91.3695 124.818 91.0749 124.919 90.4191 124.919C90.1971 124.919 90.002 124.911 89.9159 124.875C89.8852 124.863 89.858 124.844 89.8368 124.818C89.8156 124.793 89.8011 124.763 89.7945 124.731C89.7789 124.666 89.7789 124.551 89.7727 124.392V122.716H90.5208C90.7013 122.723 90.7729 122.745 90.8373 122.809C90.9452 122.924 90.9452 123.111 90.9597 123.421H91.2263C91.2118 123.134 91.1973 122.853 91.1973 122.565C91.1973 122.271 91.2118 121.982 91.2263 121.686H90.9669C90.9669 121.802 90.9597 122.076 90.9161 122.191C90.8518 122.386 90.7148 122.406 90.3838 122.414H89.7789V120.787C89.7789 120.679 89.7789 120.635 89.8007 120.578C89.8505 120.441 89.9875 120.413 90.2541 120.413C90.7003 120.413 90.9524 120.435 91.1402 120.558C91.3706 120.715 91.4141 121.055 91.4494 121.307H91.7233L91.6569 120.08V120.08ZM99.4761 120.095C98.8712 120.11 98.2663 120.117 97.6625 120.117C97.0503 120.117 96.4464 120.11 95.8477 120.095L95.8125 121.434H96.0853C96.1217 121.01 96.1652 120.592 96.6539 120.469C96.877 120.411 97.2806 120.419 97.2879 120.419V124.537C97.2734 124.91 97.1862 124.99 96.8127 125.019V125.25C97.0866 125.235 97.3678 125.22 97.6479 125.22C97.9281 125.22 98.2093 125.236 98.4904 125.25L98.4977 125.012C98.1231 124.99 98.0152 124.897 98.0225 124.515V120.412C98.5122 120.42 98.7353 120.44 98.9366 120.614C99.1804 120.815 99.2095 121.14 99.224 121.434H99.4907L99.4761 120.095V120.095ZM103.759 120.08C103.105 120.102 102.456 120.124 101.801 120.124C101.427 120.124 101.052 120.102 100.679 120.088V120.318C100.808 120.332 100.965 120.332 101.052 120.448C101.146 120.549 101.146 120.714 101.153 120.995V124.407C101.146 124.694 101.117 124.867 100.981 124.947C100.887 124.992 100.783 125.012 100.679 125.005V125.25C101.257 125.235 101.835 125.228 102.413 125.228C102.924 125.228 103.427 125.235 103.932 125.242C103.961 125.025 103.982 124.802 104.011 124.588C104.047 124.328 104.083 124.076 104.127 123.817H103.86C103.824 124.054 103.788 124.299 103.659 124.508C103.472 124.818 103.176 124.919 102.521 124.919C102.298 124.919 102.104 124.911 102.018 124.875C101.988 124.863 101.96 124.843 101.939 124.818C101.917 124.793 101.902 124.763 101.895 124.731C101.88 124.666 101.88 124.551 101.873 124.392V122.716H102.622C102.802 122.723 102.874 122.745 102.94 122.809C103.048 122.924 103.048 123.111 103.062 123.421H103.329C103.314 123.134 103.3 122.853 103.3 122.565C103.3 122.271 103.314 121.982 103.329 121.686H103.069C103.069 121.802 103.062 122.076 103.018 122.191C102.954 122.386 102.817 122.406 102.486 122.414H101.881V120.787C101.881 120.679 101.881 120.635 101.903 120.578C101.954 120.441 102.09 120.413 102.356 120.413C102.803 120.413 103.055 120.435 103.243 120.558C103.473 120.715 103.516 121.055 103.552 121.307H103.825L103.759 120.08V120.08ZM108.64 120.08C107.985 120.102 107.337 120.124 106.682 120.124C106.308 120.124 105.932 120.102 105.559 120.088V120.318C105.687 120.332 105.847 120.332 105.932 120.448C106.025 120.549 106.025 120.714 106.034 120.995V124.407C106.025 124.694 105.997 124.867 105.861 124.947C105.767 124.992 105.663 125.012 105.559 125.005V125.25C106.137 125.235 106.715 125.228 107.292 125.228C107.805 125.228 108.308 125.235 108.812 125.242C108.84 125.025 108.863 124.802 108.891 124.588C108.927 124.328 108.964 124.076 109.006 123.817H108.741C108.704 124.054 108.668 124.299 108.538 124.508C108.352 124.818 108.056 124.919 107.401 124.919C107.178 124.919 106.984 124.911 106.897 124.875C106.866 124.863 106.839 124.844 106.818 124.819C106.796 124.793 106.782 124.763 106.776 124.731C106.761 124.666 106.761 124.551 106.754 124.392V122.716H107.502C107.682 122.723 107.755 122.745 107.82 122.809C107.928 122.924 107.928 123.111 107.942 123.421H108.209C108.195 123.134 108.179 122.853 108.179 122.565C108.179 122.271 108.196 121.982 108.209 121.686H107.95C107.95 121.802 107.942 122.076 107.899 122.191C107.835 122.386 107.697 122.406 107.366 122.414H106.762V120.787C106.762 120.679 106.762 120.635 106.783 120.578C106.834 120.441 106.972 120.413 107.237 120.413C107.683 120.413 107.937 120.435 108.123 120.558C108.355 120.715 108.397 121.055 108.434 121.307H108.708L108.64 120.08V120.08ZM113.224 120.232C112.843 120.138 112.412 120.037 112.014 120.037C110.756 120.037 110.583 121.01 110.583 121.455C110.583 121.958 110.784 122.276 111.179 122.563C111.374 122.707 111.604 122.837 111.662 122.866C111.8 122.945 111.935 123.017 112.072 123.097C112.383 123.262 112.691 123.42 112.842 123.759C112.903 123.876 112.933 124.007 112.929 124.139C112.93 124.323 112.871 124.502 112.763 124.651C112.703 124.734 112.627 124.805 112.54 124.859C112.365 124.962 112.165 125.014 111.962 125.011C111.745 125.018 111.531 124.955 111.352 124.831C110.941 124.537 110.927 124.018 110.921 123.881C110.912 123.788 110.912 123.701 110.904 123.607L110.545 123.6V124.931C111.019 125.14 111.436 125.312 111.978 125.32C112.444 125.32 112.748 125.176 112.907 125.075C113.482 124.715 113.525 124.09 113.525 123.874C113.525 123.284 113.287 122.909 112.819 122.585C112.575 122.413 112.322 122.276 112.063 122.131C111.797 121.987 111.459 121.829 111.293 121.555C111.211 121.432 111.168 121.287 111.172 121.139C111.172 120.642 111.525 120.339 111.999 120.339C112.1 120.339 112.301 120.339 112.503 120.483C112.856 120.713 112.898 121.116 112.935 121.499H113.222V120.232H113.224V120.232ZM120.448 120.232C120.067 120.138 119.635 120.037 119.238 120.037C117.979 120.037 117.807 121.01 117.807 121.455C117.807 121.958 118.007 122.276 118.403 122.563C118.598 122.707 118.828 122.837 118.885 122.866C119.023 122.945 119.159 123.017 119.296 123.097C119.606 123.262 119.914 123.42 120.066 123.759C120.127 123.876 120.157 124.007 120.153 124.139C120.153 124.323 120.095 124.502 119.987 124.651C119.927 124.734 119.851 124.805 119.764 124.859C119.589 124.962 119.389 125.014 119.186 125.011C118.969 125.018 118.755 124.955 118.576 124.831C118.165 124.537 118.151 124.018 118.142 123.881C118.136 123.788 118.136 123.701 118.128 123.607L117.769 123.6V124.931C118.243 125.14 118.66 125.312 119.202 125.32C119.667 125.32 119.971 125.176 120.13 125.075C120.706 124.715 120.749 124.09 120.749 123.874C120.749 123.284 120.511 122.909 120.043 122.585C119.798 122.413 119.546 122.276 119.287 122.131C119.021 121.987 118.683 121.829 118.517 121.555C118.434 121.432 118.392 121.287 118.395 121.139C118.395 120.642 118.748 120.339 119.222 120.339C119.324 120.339 119.524 120.339 119.727 120.483C120.079 120.713 120.122 121.116 120.158 121.499H120.446V120.232H120.448V120.232ZM125.333 120.08C124.678 120.102 124.032 120.124 123.375 120.124C123 120.124 122.627 120.102 122.252 120.088V120.318C122.382 120.332 122.54 120.332 122.627 120.448C122.72 120.549 122.72 120.714 122.726 120.995V124.407C122.72 124.694 122.692 124.867 122.554 124.947C122.46 124.992 122.356 125.012 122.252 125.005V125.25C123.337 125.222 124.422 125.219 125.507 125.242C125.535 125.025 125.556 124.802 125.586 124.588C125.62 124.328 125.656 124.076 125.699 123.817H125.433C125.397 124.054 125.363 124.299 125.231 124.508C125.044 124.818 124.751 124.919 124.094 124.919C123.871 124.919 123.677 124.911 123.592 124.875C123.561 124.863 123.533 124.843 123.512 124.818C123.49 124.793 123.475 124.763 123.468 124.731C123.454 124.666 123.454 124.551 123.447 124.392V122.716H124.195C124.376 122.723 124.449 122.745 124.512 122.809C124.621 122.924 124.621 123.111 124.635 123.421H124.901C124.884 123.136 124.875 122.851 124.873 122.565C124.873 122.271 124.888 121.982 124.901 121.686H124.642C124.642 121.802 124.635 122.076 124.591 122.191C124.526 122.386 124.391 122.406 124.06 122.414H123.454V120.787C123.454 120.679 123.454 120.635 123.475 120.578C123.526 120.441 123.662 120.413 123.93 120.413C124.376 120.413 124.627 120.435 124.816 120.558C125.045 120.715 125.088 121.055 125.124 121.307H125.397L125.333 120.08V120.08ZM128.731 120.095C128.471 120.11 128.204 120.124 127.944 120.124C127.67 120.124 127.405 120.109 127.132 120.095V120.34C127.262 120.347 127.419 120.368 127.499 120.491C127.578 120.605 127.578 120.829 127.578 120.959V124.414C127.572 124.608 127.563 124.738 127.521 124.818C127.448 124.983 127.253 125.005 127.132 125.012L127.126 125.25C127.391 125.235 127.651 125.22 127.91 125.22C128.184 125.22 128.457 125.236 128.731 125.25L128.737 125.012C128.629 125.005 128.471 124.99 128.378 124.882C128.297 124.796 128.291 124.682 128.291 124.459V120.953C128.291 120.752 128.291 120.606 128.342 120.513C128.362 120.462 128.435 120.391 128.571 120.355C128.622 120.341 128.68 120.341 128.731 120.341V120.095V120.095ZM133.602 120.095C132.996 120.11 132.392 120.117 131.786 120.117C131.182 120.117 130.577 120.11 129.973 120.095L129.938 121.434H130.212C130.247 121.01 130.291 120.592 130.78 120.469C131.003 120.411 131.407 120.419 131.414 120.419V124.537C131.399 124.91 131.312 124.99 130.938 125.019V125.25C131.212 125.235 131.493 125.22 131.773 125.22C132.054 125.22 132.336 125.236 132.615 125.25L132.624 125.012C132.249 124.99 132.141 124.897 132.148 124.515V120.412C132.638 120.42 132.861 120.44 133.062 120.614C133.306 120.815 133.336 121.14 133.349 121.434H133.617L133.602 120.095V120.095ZM62.8993 124.99C62.7914 124.976 62.6835 124.968 62.6119 124.896C62.5196 124.802 62.4677 124.622 62.3816 124.35C62.2674 123.996 62.1014 123.407 61.8711 123.098C61.619 122.774 61.2952 122.73 61.1448 122.709C61.2662 122.665 61.8286 122.513 62.117 122.068C62.3038 121.774 62.3038 121.435 62.3038 121.326C62.3038 120.621 61.8929 120.332 61.6345 120.225C61.289 120.073 60.8346 120.102 60.4672 120.102C59.9779 120.114 59.4884 120.114 58.9991 120.102V120.34C59.135 120.347 59.3301 120.361 59.4089 120.505C59.467 120.613 59.4598 120.843 59.4598 120.959V124.422C59.4525 124.782 59.4234 124.904 59.2076 124.968C59.1377 124.99 59.0651 125.002 58.9918 125.004V125.241C59.2748 125.225 59.5581 125.215 59.8416 125.213C60.1072 125.213 60.3739 125.228 60.6333 125.241V125.01C60.5036 124.996 60.3313 124.988 60.2307 124.873C60.1591 124.794 60.1508 124.708 60.1508 124.513V122.836H60.5471C60.8781 122.843 61.0006 122.872 61.1303 123.001C61.1746 123.052 61.2132 123.108 61.2454 123.167C61.289 123.26 61.3606 123.441 61.4332 123.692C61.4976 123.901 61.5557 124.103 61.6127 124.313C61.7279 124.729 61.786 124.996 61.9738 125.118C62.1097 125.212 62.2612 125.218 62.4117 125.218C62.5777 125.227 62.7354 125.227 62.8942 125.218L62.8993 124.99V124.99ZM60.1497 120.93C60.1497 120.635 60.1425 120.484 60.323 120.412C60.4247 120.376 60.5461 120.376 60.6405 120.376C60.8418 120.376 60.9497 120.391 61.0358 120.427C61.1801 120.47 61.2734 120.557 61.317 120.592C61.4758 120.743 61.5837 120.974 61.5837 121.434C61.5837 122.118 61.3243 122.413 61.0068 122.513C60.8418 122.572 60.6976 122.572 60.5243 122.572H60.1497V120.93V120.93ZM85.4283 95.4678C83.734 93.1551 82.8022 90.7085 82.8022 90.7085C84.1511 89.785 84.7207 87.7016 84.7207 87.7016C86.0945 87.5957 86.3279 86.3029 86.3279 86.3029C84.7985 85.8806 84.9023 85.5382 83.6063 83.9818C82.0624 82.1277 80.8588 82.1878 80.0277 82.108C79.1987 82.0281 76.9949 82.662 76.2426 84.429C74.9311 87.5138 77.5396 89.1251 77.5396 89.1251C76.1659 90.972 78.5772 91.7108 78.5772 91.7108V96.5656C78.5772 96.5656 78.6166 97.9528 78.214 98.2008H80.6824C80.6824 98.2008 80.285 97.7132 80.311 96.6579C80.3172 96.3965 80.3203 95.9659 80.3224 95.4678V95.4668C80.3266 93.9509 80.311 91.8041 80.311 91.8041C80.8132 91.7201 81.2791 91.4918 81.2791 91.4918C81.2791 91.4918 82.3592 94.0993 82.8728 95.4658C82.9558 95.6826 83.0243 95.8704 83.0689 96.0095C83.4051 97.0159 82.6777 98.0213 82.6777 98.0213C83.6479 98.5152 84.8846 97.5856 84.8846 97.5856C89.7478 101.614 96.4049 102.126 96.6695 102.16C100.345 102.615 106.344 102.078 108.032 101.402C110.158 100.548 110.65 99.6732 110.605 98.7435C110.512 96.8063 107.416 96.4058 105.66 96.4463C104 96.4847 101.781 97.2815 101.837 98.7051C101.894 100.165 104.472 100.676 105.588 100.565C108.05 100.319 108.394 99.3889 108.384 98.9137C108.365 98.0224 106.912 97.6416 105.66 97.68C104.487 97.7163 104.131 98.3067 104.094 98.7051C104.058 99.1035 104.487 99.4646 105.101 99.4262C105.887 99.3785 105.96 98.6677 105.828 98.4965C105.699 98.3253 105.96 98.1324 106.183 98.1355C107.359 98.1552 107.806 98.4011 107.825 99.0849C107.845 99.7676 106.164 100.186 104.821 100.09C103.478 99.9958 102.415 99.5787 102.321 98.648C102.228 97.7173 103.739 97.0159 106.146 96.9402C108.551 96.8644 109.952 97.7754 110.081 98.7435C110.213 99.7116 109.131 100.395 107.898 100.869C106.71 101.326 103.908 101.786 100.772 101.666C94.1202 101.416 91.3809 100.365 88.4819 98.4955C87.2918 97.7277 86.2667 96.6144 85.4283 95.4678V95.4678ZM80.3099 86.7252L78.2369 87.3923C78.5907 88.1892 78.5751 88.6447 78.5751 88.6447C77.9038 88.6063 76.4408 87.9599 76.557 86.0259C76.6878 83.8615 78.6841 83.2358 79.8036 83.2161C80.9045 83.1974 82.9568 84.0513 82.9942 86.9369C83.0315 89.8224 80.3099 90.5985 80.3099 90.5985C80.3099 90.5985 80.2861 89.3202 80.3099 89.3077C81.3735 88.7568 82.0987 87.9236 82.0054 86.5C81.9047 84.9654 80.5507 84.014 79.3191 84.1852C78.0574 84.3595 77.7699 85.5517 78.1061 85.8744C79.0648 86.7957 79.7476 85.7416 79.6179 85.3047C79.5203 84.9779 80.0288 84.9623 80.0288 84.9623C80.9055 85.0578 81.4274 85.8723 81.4274 86.7667C81.4274 87.4193 80.9813 88.3594 80.3099 88.4922V86.7252V86.7252ZM77.8498 90.1015C77.798 89.4685 78.5751 89.4603 78.5751 89.4603V90.6555C78.5762 90.6566 77.9017 90.7344 77.8498 90.1015Z" fill="#376598"/>
</g>
<defs>
<filter id="filter0_d_52_232" x="0" y="0" width="208" height="208" filterUnits="userSpaceOnUse" color-interpolation-filters="sRGB">
<feFlood flood-opacity="0" result="BackgroundImageFix"/>
<feColorMatrix in="SourceAlpha" type="matrix" values="0 0 0 0 0 0 0 0 0 0 0 0 0 0 0 0 0 0 127 0" result="hardAlpha"/>
<feOffset dy="4"/>
<feGaussianBlur stdDeviation="2"/>
<feComposite in2="hardAlpha" operator="out"/>
<feColorMatrix type="matrix" values="0 0 0 0 0 0 0 0 0 0 0 0 0 0 0 0 0 0 0.25 0"/>
<feBlend mode="normal" in2="BackgroundImageFix" result="effect1_dropShadow_52_232"/>
<feBlend mode="normal" in="SourceGraphic" in2="effect1_dropShadow_52_232" result="shape"/>
</filter>
<clipPath id="clip0_52_232">
<rect width="200" height="200" fill="white" transform="translate(4)"/>
</clipPath>
</defs>
</svg>
